<svg version="1.2" xmlns="http://www.w3.org/2000/svg" viewBox="0 0 1024 1024" width="1024" height="1024">
	<style>
		.s0 { opacity: 1;fill: #ffffff } 
		.s1 { fill: #fdfefe } 
		.s2 { fill: #12224d } 
		.s3 { fill: #03295d } 
		.s4 { fill: #0c3e80 } 
		.s5 { fill: #d2d7dc } 
		.s6 { fill: #4c6d98 } 
		.s7 { fill: #13274f } 
		.s8 { fill: #d3d8e2 } 
		.s9 { fill: #0d357d } 
		.s10 { fill: #1d3a6a } 
		.s11 { fill: #4c6d91 } 
		.s12 { fill: #4e6f98 } 
		.s13 { fill: #f7faf4 } 
		.s14 { fill: #a4b2ca } 
		.s15 { fill: #08316b } 
		.s16 { fill: #48607f } 
	</style>
	<g id="Background">
		<path id="Path 0" class="s0" d="m16 3c0 1.65 0.45 3 1 3 0.66 0 1.08 165.42 1.25 493.75 0.22 441.52 0.41 494.23 1.79 498.25 1.14 3.33 2.11 4.56 3.75 4.75 1.22 0.14 2.21 0.92 2.21 1.75q0 1.5 3 1.5c1.78 0 3.2 0.61 3.5 1.5 0.27 0.83 0.5 4.88 0.5 9v7.5h975v-16h16v-986c-13.78 0-16.42-0.42-17.5-1.5-1.12-1.12-1.5-3.89-1.5-11v-9.5h-989z"/>
		<path id="Path 1" fill-rule="evenodd" class="s1" d="m0 0h16v3c0 1.65 0.45 3 1 3 0.66 0 1.08 165.42 1.25 493.75 0.22 441.52 0.41 494.23 1.79 498.25 1.14 3.33 2.11 4.56 3.75 4.75 1.22 0.14 2.21 0.92 2.21 1.75q0 1.5 3 1.5c1.78 0 3.2 0.61 3.5 1.5 0.27 0.83 0.5 4.88 0.5 16.5h-33zm1005 0h19v22h-8c-5.78 0-8.42-0.42-9.5-1.5-1.12-1.12-1.5-3.89-1.5-11zm3 1008h16v16h-16zm-770.75-910.01c14.15-0.01 15.36 0.14 16.75 2.01 0.82 1.11 1.95 2.02 2.5 2.02 0.55 0 2.24 1.46 3.75 3.24 1.51 1.78 2.75 4.03 2.75 4.99 0 1.01 0.74 1.74 1.75 1.73q1.75-0.02 2.51 3.25c0.42 1.8 0.76 5.41 0.75 8.02 0 2.61 0.44 4.75 0.99 4.75 0.55 0 1.01 1.01 1.01 2.25 0.01 1.24 0.35 3.27 0.75 4.51 0.41 1.24 1.35 2.37 2.09 2.5 0.74 0.13 1.97 2.04 2.73 4.24 0.76 2.2 1.41 4.9 1.44 6 0.03 1.1 0.92 3.8 1.98 6 1.06 2.2 1.95 4.79 1.97 5.75 0.01 0.96 0.48 1.97 1.03 2.25 0.55 0.27 1.34 3.88 1.75 8 0.44 4.45 1.26 7.71 2 8 0.71 0.28 1.25 2.23 1.25 4.5 0 3.7 0.21 4 5.5 3.99l-0.75 22.51c-0.65 19.35-0.54 22.71 0.75 24 1.05 1.05 1.5 3.61 1.5 8.5 0 3.85 0.34 7.18 0.75 7.39 0.41 0.22 1.09 4.04 1.5 8.5 0.41 4.46 1.09 8.11 1.5 8.1 0.41 0 1.04 5.06 1.4 11.25 0.4 6.86 1.08 11.36 1.75 11.51 0.61 0.14 1.11 2.38 1.12 5 0.01 2.61 0.55 6.55 1.2 8.75 0.65 2.2 1.45 4.22 1.78 4.5 0.33 0.27 1.4 2.97 2.38 6 0.98 3.02 2.08 8.09 2.45 11.26 0.37 3.17 1.01 5.76 1.42 5.75 0.41-0.01 0.75 1.45 0.74 3.24 0 1.79 0.67 4.26 1.5 5.5 0.91 1.35 1.74 5.73 2.08 11 0.31 4.81 1.05 11 1.65 13.75 0.59 2.75 1.65 5.9 2.33 7 0.69 1.1 1.52 3.46 1.85 5.25 0.33 1.79 1.05 3.25 1.6 3.25 0.55 0 1.34 2.26 1.75 5.02 0.57 3.83 1.16 5.01 2.5 5 0.96-0.01 3.55-0.92 5.75-2.02 2.2-1.1 3.98-2.56 3.96-3.25-0.03-0.69 0.69-1.93 1.6-2.75 1.34-1.22 1.61-3.2 1.43-10.5-0.13-4.95-0.18-13.39-0.11-18.75 0.11-8.86 0.3-9.8 2.12-10.25 1.1-0.28 2-0.95 2-1.5 0-0.63 6.33-1 17-1 13.78 0 17.28 0.28 18.5 1.5 0.82 0.82 2.85 1.5 4.5 1.5 1.65 0 3 0.45 3 1 0 0.55 1.13 1.22 2.5 1.5 1.38 0.27 2.49 0.84 2.48 1.25-0.02 0.41 1.33 1.09 3 1.5 1.66 0.41 4.39 2.21 6.05 4 1.67 1.79 3.02 3.59 3 4-0.01 0.41 1.32 0.75 2.97 0.75q3 0 5 2.5c1.4 1.75 2.97 2.5 5.25 2.48 3.14-0.01 3.28 0.16 4 5 0.64 4.3 1.33 5.45 4.75 8.02 2.37 1.78 5.22 3 7 3q3 0 3 1.5c0 0.93 0.94 1.5 2.5 1.5 2.19 0 2.5 0.43 2.5 3.5 0 1.92 0.45 3.5 1 3.5 0.55 0 3.81 3.84 7.25 8.52 3.44 4.69 6.81 8.52 7.5 8.5 0.69-0.01 1.23 0.77 1.22 1.73-0.02 0.96 0.88 2.99 2 4.5 1.43 1.94 2.92 2.75 5.03 2.75q3 0 3 1.5c0 0.82 0.45 1.5 1 1.5 0.55 0 1.23 1.12 1.5 2.5 0.27 1.37 1.06 3.09 1.75 3.81 0.69 0.71 2.04 1.61 3 2 0.96 0.38 1.75 1.36 1.75 2.19 0 0.82 0.45 1.5 1 1.5 0.55 0 1 1.57 1 3.5 0 2.67 0.48 3.62 2 4 1.1 0.27 2.23 1.4 2.5 2.5 0.27 1.1 0.95 2 1.5 2 0.55 0 1.23 1.12 2 5l50.5 0.01 5.5-8.03c3.02-4.42 5.84-8.02 6.25-8.01 0.41 0.02 0.75-0.42 0.75-0.97 0-0.55 2.7-5.05 6-10 3.3-4.95 6.45-9 7-9 0.55 0 0.99-0.56 0.98-1.25-0.01-0.69 2.69-4.96 6-9.5 3.31-4.54 9.06-10.76 12.77-13.82 3.71-3.07 12.6-10.03 19.75-15.46 7.15-5.44 13.56-9.91 14.25-9.93 0.69-0.02 1.25-0.38 1.24-0.79 0-0.41 3.71-3.44 8.25-6.72 4.55-3.29 10.74-6.99 13.76-8.23 4.97-2.03 7.17-2.25 22.75-2.28 14.46-0.02 17.33 0.22 17.75 1.48 0.27 0.82 0.51 4.99 0.53 9.25 0.02 5.94 0.48 8.45 1.98 10.75 1.07 1.65 2.4 5.7 2.95 9 0.56 3.3 1.58 7.26 2.28 8.79 0.69 1.53 1.82 2.77 2.51 2.75 0.69-0.02 1.48 0.63 1.75 1.46 0.27 0.82 2.64 2.4 5.25 3.5 2.61 1.1 4.85 1.89 4.98 1.75 0.12-0.14 1.35-5.43 2.71-11.75 1.37-6.33 3.38-15.55 4.46-20.5 1.08-4.95 4.23-19.13 6.99-31.5 2.76-12.38 6.84-30.71 9.06-40.75 3.59-16.17 4.05-19.73 4.05-31.25 0-11.72 0.17-13 1.75-12.99 1.55 0.01 2.01-2.67 4.08-23.75 1.28-13.07 3.39-28.26 4.68-33.76 1.29-5.5 3.55-13.83 5.03-18.5 1.47-4.68 4.47-13.23 6.65-19 2.19-5.78 6.19-15.79 8.89-22.25 2.71-6.46 5.37-11.75 5.92-11.75 0.55 0 1-0.68 1-1.5 0-0.83 0.67-1.5 1.5-1.5 0.83 0 1.5-0.68 1.5-1.5 0-0.83 1.35-2.18 3-3 2.39-1.2 7.44-1.5 25-1.5 13.67 0 22.19 0.38 22.5 1 0.27 0.55 2.08 1 4 1 2.83 0 3.5 0.38 3.5 2 0 1.56 1 2.22 4.5 3 3.5 0.78 4.5 1.44 4.5 3 0 1.1 0.45 2 1 2 0.55 0 2.14 1.01 3.52 2.25 1.39 1.24 2.52 3.04 2.5 4-0.02 1.52 1.28 1.81 9.73 2.23 5.36 0.27 12.34 0.72 15.5 1 3.16 0.29 5.75 0.97 5.75 1.52 0 0.55 1.46 0.99 3.25 0.97 2.19-0.01 4.07 0.81 5.75 2.53 1.37 1.4 2.95 2.54 3.5 2.52 0.55-0.02 1.86 0.98 2.91 2.22 1.05 1.24 2.17 3.95 2.5 6.03 0.48 3.06 1.01 3.76 2.84 3.75 1.42-0.01 2.43 0.71 2.75 1.98 0.27 1.1 1.51 2.28 2.75 2.63 1.34 0.38 2.35 0.17 2.5-0.5 0.18-0.8 6.56-1.13 43.25-1.13l-0.02 3.25c-0.01 1.87 0.83 4.2 2 5.5 1.21 1.35 2.02 3.65 2.02 5.75 0 2.83 0.38 3.5 2 3.5 1.87 0 2 0.67 2.02 10.25 0.01 5.64 0.68 16.1 1.48 23.25 0.8 7.15 1.83 14.57 2.29 16.5 0.46 1.92 1.15 4.06 1.53 4.75 0.37 0.69 2.37 1.26 4.43 1.26 2.06 0.01 4.76 0.24 6 0.5 2.09 0.46 2.25 1.02 2.25 7.99 0 4.33 0.42 7.5 1 7.5 0.55 0 1.01 1.91 1.02 4.25 0.02 2.34 0.46 6.05 0.99 8.25 0.53 2.2 1.26 11.87 1.61 21.5 0.42 11.61 0.23 20.53-0.57 26.5-0.67 4.95-2.4 12.6-3.85 17-2.56 7.79-2.62 8.59-2.37 30 0.14 12.1-0.22 28.75-0.8 37-0.58 8.25-1.74 19.5-2.58 25-1.1 7.27-2.33 11.44-4.48 15.25-1.64 2.89-2.97 5.92-2.97 6.75 0 0.82-0.45 1.5-1 1.5-0.55 0-2.11 1.01-3.46 2.25-1.35 1.24-2.49 2.7-2.53 3.25-0.03 0.55-0.84 1.8-1.79 2.78-0.94 0.98-2.51 1.77-3.47 1.75-1.21-0.02-1.75 0.74-1.75 2.47 0 1.47-1.03 3.33-2.5 4.5-1.38 1.1-2.5 2.45-2.5 3 0 0.55-1.24 2.13-2.75 3.5-1.51 1.38-3.31 2.51-4 2.5-0.69 0-1.26 0.79-1.27 1.75-0.01 0.96-1.03 2.77-2.25 4.03-1.23 1.25-3.02 2.26-3.98 2.25-1.09-0.02-1.75 0.72-1.75 1.97 0 1.1-1.24 3.36-2.75 5.03-2.14 2.36-3.58 3.02-6.5 3-3.67-0.03-3.75 0.05-3.74 7.47l-14.26 2.3c-7.84 1.27-14.36 2.73-14.5 3.25-0.14 0.52-2.95 0.95-6.25 0.95-4.83 0-10.05 1.39-26.75 7.12-11.41 3.92-22.1 7.36-23.75 7.64-1.65 0.28-3.23 0.87-3.5 1.31-0.27 0.43-12.42 4.88-27 9.89-14.58 5.01-31.45 10.85-37.5 12.98-6.05 2.13-21.13 6.65-33.5 10.04-12.38 3.4-25.42 7.04-29 8.09-3.58 1.05-12.8 3.71-20.5 5.9-7.7 2.19-20.3 5.77-28 7.95-7.7 2.18-15.13 4.38-16.5 4.89-2.06 0.76-2.63 1.83-3.25 6.05-0.41 2.83-1.31 5.29-2 5.48-0.92 0.25-1.25 3.92-1.25 14.03 0 9.17 0.38 13.93 1.14 14.41 0.77 0.49 1.37 8.54 1.84 24.72 0.49 16.82 0.35 25.95-0.47 30.5-0.64 3.58-1.42 8.75-1.72 11.5-0.31 2.75-1.18 5.34-1.93 5.75-0.75 0.41-1.36 1.2-1.36 1.75 0 0.55-1.72 4.71-3.82 9.25-2.09 4.54-5.29 12.08-7.1 16.75-1.81 4.67-3.97 10.08-4.8 12-0.82 1.92-1.9 4.17-2.38 5-0.49 0.83-2.19 3.98-3.78 7-1.6 3.02-3.45 7.52-4.11 10-0.67 2.48-1.56 4.73-1.98 5-0.43 0.27-2.12 3.2-3.76 6.5-1.64 3.3-3.29 8.02-3.66 10.5-0.37 2.48-0.17 11.47 0.44 20 0.62 8.52 2.19 21.35 3.49 28.5 1.3 7.15 2.86 17.05 3.48 22 0.61 4.95 0.81 12.15 0.43 16-0.37 3.85-1.54 10.37-2.6 14.5-1.08 4.23-4.37 12.08-7.55 18-3.1 5.77-6.47 11.4-7.49 12.5-1.02 1.1-1.84 3.01-1.83 4.25 0.01 1.24-0.65 2.48-1.48 2.75-0.83 0.27-1.5 1.62-1.5 3 0 1.87-0.63 2.63-2.5 3-2 0.4-2.5 1.1-2.5 3.5 0 1.65-0.56 3.6-1.25 4.33-0.69 0.73-3.73 2.14-6.75 3.13-3.02 0.99-5.95 2.14-6.5 2.55-0.55 0.4-2.35 0.96-4 1.24-1.65 0.27-7.73 1.94-24 6.91l-17.5-0.57c-9.63-0.32-20.99-0.8-25.25-1.08-4.26-0.28-7.75-0.96-7.75-1.51 0-0.55-0.9-1-2-1-1.17 0-2.21-0.83-2.5-2-0.36-1.44-1.33-2-3.5-2-1.65 0-3-0.45-3-1 0-0.55-1.35-1-3-1-2.4 0-3.1-0.5-3.5-2.5-0.27-1.38-1.06-2.49-1.75-2.47-0.69 0.01-1.81-1.11-2.5-2.5-0.69-1.39-1.7-2.53-2.25-2.53-0.55 0-1-1.13-1-2.5 0-1.38-0.23-3.17-0.5-4-0.27-0.83-1.18-1.5-2-1.5-0.83 0-1.5-0.89-1.5-2 0-1.1-0.56-1.99-1.25-1.98-0.69 0.01-2.04-1.56-3-3.5-0.96-1.94-1.75-3.97-1.75-4.52 0-0.55-0.68-1.67-1.5-2.5-0.83-0.83-1.5-3.28-1.5-5.5 0-2.44-1.17-6.33-3-10-2.88-5.76-3-6.52-2.99-19.25 0-8.43 1.28-24.72 3.5-44.75 1.93-17.33 3.72-32.74 3.99-34.25 0.37-2.05-0.13-3.32-1.98-5-1.37-1.24-2.48-3.15-2.47-4.25 0.01-1.1-1.12-3.24-2.52-4.75-1.39-1.51-2.53-3.88-2.53-5.25 0-1.56-0.57-2.5-1.5-2.5-0.82 0-1.73-0.67-2-1.5-0.27-0.83-0.5-3.08-0.5-5 0-2.44-0.45-3.5-1.5-3.5q-1.5 0-1.5-3c0-2.17-0.56-3.14-2-3.5-1.67-0.42-2-1.33-2-5.5 0-3.84-0.41-5.16-1.75-5.68-0.96-0.37-2.08-1.16-2.48-1.75-0.41-0.59-0.75-2.31-0.75-3.82-0.01-1.77-0.55-2.75-1.52-2.75-0.82 0-1.73-0.67-2-1.5-0.27-0.83-0.5-2.63-0.5-4 0-1.56-0.57-2.5-1.5-2.5-1.13 0-1.5-1.22-1.5-5 0-4.33-0.27-5-2-5-1.76 0-2-0.67-2-5.5 0-3.03-0.34-5.48-0.75-5.46-0.41 0.02-1.82-2.34-3.13-5.25-1.3-2.91-2.73-5.52-3.16-5.79-0.44-0.28-0.86-6.8-0.95-14.5-0.09-7.7 0.14-22.33 0.5-32.5 0.38-10.51 1.09-18.72 1.65-19 0.65-0.33 0.59-2.59-0.16-6.5-0.63-3.3-1.66-7.8-2.29-10-0.63-2.2-1.73-4.56-2.43-5.25-0.7-0.69-1.28-1.92-1.28-2.75 0-0.83-1.14-3.64-2.52-6.25-1.39-2.61-2.52-5.54-2.5-6.5 0.01-1.08-0.94-1.94-2.48-2.25-1.38-0.28-2.5-0.95-2.5-1.5 0-0.55-0.68-1-1.5-1-0.83 0-1.5-0.89-1.5-2 0-1.78-0.67-2-6-2-3.33 0-6-0.44-6-1 0-0.55-1.8-1-4-1-2.2 0-4-0.45-4-1 0-0.55-1.8-1-4-1-2.2 0-4-0.45-4-1 0-0.55-1.35-1-3-1-1.65 0-3-0.45-3-1 0-0.55-1.35-1-3-1-2.17 0-3.14-0.56-3.5-2-0.36-1.44-1.33-2-3.5-2-1.65 0-3-0.45-3-1 0-0.55-1.57-1-3.5-1-1.93 0-3.5-0.45-3.5-1 0-0.55-1.57-1-3.5-1-1.93 0-3.5-0.45-3.5-1 0-0.55-1.69-1.45-3.75-1.99-2.06-0.55-5.21-1-7-1-1.79-0.01-3.25-0.46-3.25-1.01 0-0.55-1.69-1.45-3.75-1.99-2.06-0.55-6.79-1-10.5-1-6.08-0.01-6.75-0.21-6.75-2.01 0-1.81-0.67-2-7-2-6.33 0-7-0.19-7-2 0-1.4-0.68-2.01-2.25-2.04-1.24-0.02-2.7-0.74-3.25-1.6-0.7-1.09-3.35-1.76-8.76-2.21-4.26-0.36-7.75-0.99-7.75-1.4 0.01-0.41-1.79-0.75-3.99-0.75-2.2 0-4-0.45-4-1 0-0.55-1.35-1-3-1-2.33 0-3-0.44-3-2 0-1.73-0.67-2-5-2-4.17 0-5.08-0.33-5.5-2-0.36-1.44-1.33-2-3.5-2-1.65 0-3-0.45-3-1 0-0.55-1.69-1.45-3.75-1.99-2.06-0.55-4.99-1-6.5-1-1.51-0.01-2.75-0.46-2.75-1.01 0-0.55-1.13-1-2.5-1-1.38 0-2.5-0.45-2.5-1 0-0.56-2.83-1-6.5-1-3.67 0-6.5-0.44-6.5-1 0-0.55-1.35-1-3-1-1.65 0-3-0.45-3-1 0-0.55-0.9-1-2-1-1.1 0-2-0.45-2-1 0-0.55-1.35-1-3-1-1.65 0-3-0.45-3-1 0-0.55-1.8-1-4-1-2.2 0-4-0.45-4-1 0-0.55-0.79-1-1.75-1-0.96 0.01-2.31-0.89-3-2-0.71-1.13-2.33-2-3.75-2-1.38 0-2.5-0.45-2.5-1 0-0.57-3-1-7-1-6.33 0-7-0.19-7-2 0-1.81-0.67-2-7-2-4 0-7-0.43-7-1 0-0.55-1.8-1-4-1-2.2 0-4-0.45-4-1 0-0.55-1.58-1-3.5-1-1.92 0-3.5-0.45-3.5-1 0-0.55-0.45-1-1-1-0.55 0-2.35-1.35-4-3-1.65-1.65-3-3.45-3-4 0-0.55-0.67-1-1.5-1-0.83 0-1.49-0.34-1.47-0.75 0.02-0.41-0.9-1.88-2.03-3.25-1.13-1.38-2.05-3.29-2.03-4.25 0.02-1.02-0.7-1.75-1.72-1.74-0.96 0.01-2.42-0.95-3.25-2.12-0.83-1.17-3.19-3.99-5.25-6.26-2.07-2.27-4.54-4.93-5.5-5.9-0.96-0.98-2.54-1.77-3.5-1.75-1.3 0.01-1.88-1.01-2.25-3.98-0.28-2.2-0.95-4-1.5-4-0.55 0-1-1.13-1-2.5q0-2.5-2-3c-1.58-0.4-2-1.33-2-4.5 0-2.22-0.67-4.67-1.5-5.5-0.83-0.83-1.95-1.5-2.5-1.5-0.57 0-1.2-4.23-1.46-9.75-0.26-5.36-0.9-18.75-1.44-29.75-0.53-11-1.29-27.2-1.68-36-0.55-12.04-1.07-16.25-2.14-17-1.18-0.83-1.49-8.68-1.85-46.25-0.28-29.79-0.09-45.25 0.57-45.25 0.56 0 1-2.67 1-12h20v-8c0-4.4 0.34-8 0.75-8 0.41 0 0.64-7.2 0.5-16-0.16-10.17 0.11-16 0.75-16 0.61 0 1-4.67 1-12 0-10 0.25-12 1.5-12 0.83 0 2.17-1.13 3-2.5 1.31-2.18 2.2-2.5 7-2.5 4 0 5.64-0.41 6-1.5 0.42-1.25 3.17-1.5 16.5-1.5 15.33 0 16 0.08 16 2 0 1.1 0.45 2 1 2 0.55 0 1 0.67 1 1.5q0 1.5 3 1.5c2.67 0 3-0.33 3-3 0-2.17 0.56-3.14 2-3.5 1.1-0.28 1.99-1.29 1.98-2.25-0.01-0.96 0.53-2.31 1.2-3 0.67-0.69 2.93-1.25 5.02-1.25 3.77 0 3.8-0.04 3.8-4 0-2.89 0.42-4 1.5-4 0.82 0 1.72-0.9 2-2 0.36-1.44 1.33-2 3.5-2 1.65 0 3-0.45 3-1 0-0.61 4.59-1 11.75-1.01 6.88-0.01 13.1-0.53 15.01-1.25 1.8-0.68 3.26-1.58 3.25-1.99 0-0.41 0.78-0.75 1.74-0.74 0.96 0 2.54-0.9 3.5-2 0.96-1.11 2.43-2.01 3.25-2.01 0.82 0 1.5-0.45 1.5-1 0-0.55 0.68-1 1.5-1 0.82 0 1.5-0.45 1.5-1 0-0.55 1.12-1.23 2.5-1.5 1.37-0.28 2.5-0.95 2.5-1.5 0-0.55 0.68-1 1.5-1 0.82 0 1.5-0.45 1.5-1 0-0.55 1.12-1 2.5-1 1.37 0 2.5-0.45 2.5-1 0-0.55 0.64-1.68 1.43-2.5 0.78-0.83 3.03-1.5 5-1.5 1.96 0 3.57-0.45 3.57-1 0-0.62 5.76-1 15.25-1.01zm104.91 350.96c-11.09 12.13-19.89 22.39-19.55 22.8 0.33 0.41 12.92 2.77 27.99 5.25 15.06 2.48 27.23 4.05 27.04 3.5-0.18-0.55-2.92-10.23-6.08-21.5-3.16-11.27-6.53-23.11-7.49-26.3l-1.75-5.81zm310.39 6.77c-2.65 8.13-5.09 15.24-5.42 15.79-0.35 0.58-0.09 0.68 0.63 0.25 0.68-0.42 1.58-0.24 1.99 0.38 0.52 0.79 3.64 0.95 10.25 0.52 8.1-0.52 10.57-1.13 16.75-4.13 3.99-1.94 7.23-3.86 7.21-4.27-0.02-0.42-0.85-1.43-1.84-2.25-0.98-0.83-6.62-5.78-12.52-11-5.9-5.23-11.07-9.63-11.49-9.79-0.41-0.16-2.91 6.37-5.56 14.5z"/>
		<path id="Path 2" class="s2" d="m224.75 120.27c-2.07 1.22-9.83 5.94-17.25 10.48-7.43 4.54-13.84 8.81-14.25 9.49q-0.74 1.23 0.5 0.5c0.91-0.54 1.42 0.69 1.86 4.51 0.34 2.89 0.98 5.7 1.42 6.25 0.44 0.55 2.01 10.45 3.48 22 1.71 13.47 2.8 27.45 3.04 39 0.21 10.34 1.19 23.96 2.32 32 1.08 7.7 2.26 17.15 2.62 21 0.37 3.85 1.29 9.7 2.04 13 0.75 3.3 2.76 19.05 4.47 35 1.7 15.95 4 35.52 5.11 43.5 1.1 7.98 2.32 16.02 2.7 17.88 0.66 3.22 1.13 2.47 9.58-15 4.89-10.11 16.52-33.68 25.85-52.38l16.95-34c-4.14-44.95-6.22-62.5-7.3-68-1.09-5.5-3.12-14.27-4.52-19.5-1.41-5.22-4.12-14.22-6.03-20-1.91-5.77-6.26-17.25-9.66-25.49-4.26-10.34-7.27-16.15-9.68-18.72-2.52-2.68-4.34-3.73-6.5-3.74-1.65-0.01-4.69 0.99-6.75 2.22zm131.7 238.42c-0.43 0.36-0.66 4.06-0.5 8.23 0.16 4.17 0.57 10.47 0.92 14.01 0.6 6.09 0.79 6.48 3.63 7.27 1.65 0.45 3.68 1.5 4.5 2.33 1.33 1.33 1.58 1.33 2.25-0.02 0.41-0.83 1.43-1.28 2.25-1.01 0.82 0.27 2.96-0.18 4.75-1.02 1.79-0.84 3.48-1.52 3.75-1.52 0.27 0-1.46 1.69-3.86 3.77-4.18 3.61-4.34 3.95-3.75 8.02 0.33 2.34 0.16 5.15-0.39 6.25-0.55 1.1-1.59 2-2.31 2-0.72 0-5.55 4.17-10.75 9.26-5.19 5.09-12.37 11.58-15.94 14.42-3.57 2.84-11.45 8.99-17.5 13.67-6.05 4.67-13.48 10.9-16.5 13.83-3.02 2.92-5.5 5.81-5.5 6.41 0 0.59-2.93 3.56-6.5 6.59-3.57 3.03-8.07 6.31-10 7.29-2.67 1.35-5.23 1.69-10.78 1.4-5.08-0.26-7.58-0.83-8.24-1.87-0.52-0.82-0.96-1.16-0.96-0.75-0.01 0.41-0.61 0.19-1.34-0.5-0.72-0.69-1.88-3.27-2.56-5.75-0.69-2.48-1.87-7.2-2.62-10.5-0.75-3.3-6.3-17.48-12.32-31.5-6.03-14.02-12.81-29.44-15.07-34.25-2.48-5.29-4.7-8.75-5.61-8.75-1.21 0-1.49 1.52-1.47 7.75 0.01 4.26-0.32 7.4-0.75 6.97-0.43-0.43-1.71 2.27-2.84 6-1.13 3.73-4.39 11.62-7.25 17.53-2.85 5.91-4.85 10.98-4.44 11.26 0.41 0.28-1.91 6.02-5.17 12.75-3.25 6.73-6.79 13.37-7.86 14.74-1.07 1.38-3.81 3.34-6.08 4.36-3.65 1.64-3.9 1.95-2.14 2.68 1.1 0.45 1.55 0.9 1 1.01-0.55 0.1-1.45 0.24-2 0.32-0.55 0.07-2.24 1.37-3.75 2.88l-2.75 2.75c87.19 28.81 121.05 39.56 131.5 42.49 10.45 2.92 33.18 9.44 50.5 14.48 17.32 5.04 35.1 10.27 39.5 11.63 7.69 2.38 8.01 2.6 8.28 5.69 0.15 1.76 1.58 11.54 3.18 21.71l2.9 18.5-4.28 64c10.28 23.25 18.95 42.38 25.9 57.5 6.95 15.13 14.07 30.55 15.83 34.28 1.75 3.73 3.42 6.78 3.69 6.78 0.27 0 4.41-8.45 9.18-18.78 4.78-10.33 14.38-31.15 21.34-46.28 6.96-15.12 14.41-31.44 16.57-36.25 3.32-7.44 3.74-9.09 2.75-11-0.64-1.24-11.25-19.58-23.57-40.75-12.33-21.17-24.52-41.97-27.09-46.2-2.57-4.24-4.91-7.52-5.18-7.3-0.27 0.23-3.65-0.16-7.5-0.86-3.85-0.7-7.45-1.52-8-1.84-0.55-0.31-5.18-4.55-10.29-9.43-5.11-4.88-9.27-9.66-9.25-10.62 0.02-0.96-0.52-1.93-1.21-2.14-0.69-0.22-11.82-2.24-24.75-4.5-12.92-2.26-39.02-6.81-58-10.12-18.98-3.3-34.61-6-34.75-5.99-0.14 0 3.13-4.84 7.26-10.75 4.13-5.91 11.44-15 16.25-20.21 4.81-5.2 11.67-12.64 15.24-16.53 3.58-3.9 11-11.93 16.5-17.84 5.5-5.92 10.12-10.62 10.26-10.46 0.14 0.16 3.86 12.67 8.26 27.79 4.41 15.13 8.11 27.6 8.24 27.73 0.13 0.13 8.79 1.56 19.24 3.18 14.82 2.3 19.33 2.69 20.5 1.77 0.83-0.65 1.65-1.85 1.83-2.68 0.19-0.82 0.86-2.08 1.5-2.79 0.65-0.72 1.51-1.28 1.92-1.25 0.41 0.02 3.56-2.09 7-4.69 3.44-2.59 6.99-5.63 7.9-6.75 0.9-1.11 2.47-3.02 3.5-4.25 1.02-1.23 2.2-1.91 2.63-1.5 0.43 0.4 0.76 0.17 0.75-0.52-0.02-0.69 0.42-1.02 0.97-0.75 0.55 0.27 1.17-0.06 1.38-0.75 0.21-0.69-4.12-6.42-9.62-12.75-5.49-6.32-18.6-21.63-29.13-34.01-10.52-12.38-19.69-23.29-20.38-24.25-0.92-1.28-0.98-2.67-0.25-5.24 0.55-1.92 0.66-3.5 0.25-3.51-0.41 0-1.81 0.79-3.11 1.75-2.35 1.75-2.39 1.73-6.43-3.24-2.24-2.75-6.58-7.4-9.64-10.34-3.06-2.94-7.21-6.64-9.21-8.22-2-1.59-3.99-2.6-4.41-2.25zm434.12 33.62c-1.29 1.32-4.64 9.71-8.45 21.19-3.47 10.45-8.73 25.52-11.69 33.5-2.96 7.98-5.4 15.29-5.41 16.25-0.01 0.96 0.5 2.09 1.13 2.5 0.77 0.5 0.94 2.48 0.5 6-0.56 4.5-0.4 5.3 1.1 5.63 1.67 0.37 1.67 0.39 0 0.5-0.96 0.07-1.75 0.57-1.75 1.12 0 0.55 1.01 1.16 2.25 1.36 1.9 0.31 1.94 0.39 0.25 0.49q-2 0.13-3 3.39l-1 3.26c-19.1 0.56-20.43 0.36-24.75-1.96-2.61-1.4-5.76-2.57-7-2.61-1.99-0.06-2.03-0.15-0.37-0.75 1.57-0.57 0.96-1.33-3.78-4.68-3.11-2.2-5.64-4.45-5.61-5 0.03-0.55-2.09-2.94-4.72-5.32-2.62-2.37-9.27-7.3-14.77-10.95-5.5-3.64-14.05-9-19-11.9-4.95-2.9-9.34-5.06-9.75-4.8-0.41 0.26-1.76 0.09-3-0.38-1.24-0.47-3.49-1.15-5-1.5-2.28-0.54-2.62-0.38-2 0.94 0.46 0.97 0.23 1.84-0.6 2.25-1.04 0.51-1.1 1.17-0.25 2.91 0.61 1.24 8.2 8.44 16.87 16 8.68 7.56 18.69 16.27 22.25 19.35 3.57 3.08 9.18 8.83 12.48 12.78 3.3 3.95 5.77 7.4 5.5 7.66-0.27 0.27-26.15 5.17-57.5 10.88-31.35 5.72-58.58 10.85-60.5 11.4-1.92 0.55-2.94 1.04-2.25 1.09 0.96 0.07 1.01 1.03 0.25 4.09-0.55 2.2-1.45 4-2 4-0.55 0-0.77 0.67-0.5 1.5 0.27 0.83 0.16 1.5-0.25 1.5-0.41 0-0.75 1.31-0.75 2.9 0 2.6 0.74 3.27 7 6.38 4.84 2.4 8.08 3.38 10.5 3.18 1.92-0.17 14.3-3.43 27.5-7.27 13.2-3.83 38.85-11.1 57-16.15 18.15-5.06 46.5-13.84 63-19.52 16.5-5.69 36.52-12.69 44.5-15.56 7.98-2.88 14.85-5.51 15.27-5.85 0.42-0.33 0.92-1.51 1.1-2.61 0.25-1.46-0.36-2.17-2.26-2.63l-2.61-0.63c4.48-0.2 5.5-0.8 5.5-1.74 0-0.82-1.01-4.01-2.25-7.07-1.95-4.84-2.05-5.69-0.75-6.43 1.28-0.72 1.08-1.76-1.38-7.17-1.58-3.48-3.02-7.45-3.19-8.83-0.18-1.37-1.14-4.2-2.13-6.28-0.99-2.08-2.14-3.77-2.55-3.75-0.41 0.02-0.52-0.42-0.25-0.97 0.27-0.55 0.05-1-0.5-1-0.55 0-0.77-0.45-0.5-1 0.27-0.55 0.05-1-0.5-1-0.55 0-0.77-0.45-0.5-1 0.27-0.55 0.05-1-0.5-1-0.55 0-0.89-0.34-0.75-0.75 0.13-0.41-1.33-4.22-3.25-8.47-1.93-4.25-3.84-7.51-4.25-7.25-0.41 0.26-0.82-0.32-0.91-1.28-0.09-0.96-0.09-2.54 0-3.5 0.09-0.96-0.29-1.52-0.84-1.25-0.57 0.28-1.43-2.2-1.99-5.75-0.55-3.44-1.02-6.92-1.05-7.75-0.04-1.33 0.15-1.33 1.75 0 1.59 1.33 1.67 1.33 0.67 0-0.62-0.82-2.15-1.81-3.39-2.19-1.63-0.49-2.87-0.07-4.42 1.5zm-337.89 407.94c-2.61 23.79-4.73 44.15-4.71 45.25 0.01 1.1 4.75 11.9 10.53 24 5.77 12.1 11.06 23.1 11.75 24.44 1.02 2.01 4.13 3.4 17.25 7.76 8.8 2.92 16.56 5.3 17.25 5.3 0.88 0 1.08-1.1 0.66-3.75-0.33-2.06-1.24-7.8-2.02-12.75-0.79-4.95-1.88-15.3-2.41-23-0.54-7.7-1.05-19.4-1.14-26-0.1-6.6 0.22-12.67 0.7-13.5 0.48-0.83 0.96-2.17 1.06-3 0.09-0.83 0.79-4.56 1.54-8.31l1.36-6.81c-22.48-25.14-32.87-37.04-37.6-42.66-4.73-5.62-8.79-10.22-9.03-10.22-0.25 0-2.58 19.46-5.19 43.25z"/>
		<path id="Path 3" class="s3" d="m65.5 253c0.33 8.52 1.25 25.4 2.05 37.5 0.8 12.1 2.82 38.43 4.49 58.5 1.67 20.07 3.61 41.45 4.31 47.5 0.99 8.53 1.86 12.01 3.9 15.5 1.45 2.48 10.13 13.05 19.3 23.5 9.16 10.45 18.64 21.14 21.06 23.75l4.39 4.75c25.6 3.24 31.94 4.63 38.73 7.12 8.76 3.2 9.33 3.29 11 1.66 0.98-0.95 2.45-1.75 3.27-1.77 1.14-0.03 1.19-0.22 0.22-0.78-0.99-0.56-0.82-1.36 0.75-3.48 1.12-1.51 2.37-2.57 2.78-2.36 0.41 0.22-3.09-7.32-7.79-16.75-4.69-9.43-12.31-25.02-16.93-34.64-4.62-9.63-12.18-25.38-16.81-35-4.63-9.63-10.23-21.32-12.45-26-2.21-4.68-9.98-20.88-17.27-36-7.28-15.13-15.82-32.68-18.96-39-3.15-6.32-9.53-16.68-14.19-23-4.65-6.32-9.36-12.63-10.45-14l-1.98-2.5zm887.02-8.75c-2.45 3.44-6.82 9.63-9.71 13.75-2.89 4.13-5.38 8.06-5.53 8.75-0.21 0.93 0.23 0.99 1.71 0.25 1.4-0.7 1.78-1.53 1.27-2.75-0.51-1.24-0.37-1.53 0.5-1 0.68 0.41 1.18 0.41 1.11 0-0.06-0.41-0.06-1.31 0-2 0.07-0.69 0.46-1.25 0.87-1.24 0.42 0 0.75 0.88 0.75 1.95 0 1.08-0.78 2.87-1.75 4-1.39 1.63-1.49 2.28-0.5 3.24 0.69 0.66 0.45 0.55-0.54-0.25-1.61-1.3-1.8-1.24-1.87 0.55-0.04 1.1 0.01 2.68 0.12 3.5 0.11 0.82-0.4 1.95-1.13 2.5-0.73 0.55-2.11 2.69-3.08 4.75-0.96 2.06-2.2 3.75-2.75 3.75-0.55 0-1-0.9-1-2 0-1.1 0.34-2 0.75-1.99 0.42 0.01 1.28-1.91 1.93-4.25 0.64-2.34 1.09-4.37 1-4.5-0.1-0.14-2.62 4.81-5.61 11-2.99 6.18-8.78 18.22-12.87 26.74-4.09 8.52-11.25 23.6-15.91 33.5-4.66 9.9-10.07 21.38-12.02 25.5-1.95 4.13-8.22 17.18-13.93 29-5.71 11.82-10.37 21.61-10.36 21.75 0.01 0.14-5.21 10.94-11.61 24-6.76 13.8-11.75 25.22-11.89 27.25-0.21 2.84 0.14 3.61 1.88 4.09 1.18 0.32 4.17-0.04 6.64-0.8 2.48-0.76 13.73-2.94 25-4.85 11.28-1.92 21.52-3.7 22.75-3.96 1.35-0.29 9.39-8.59 20.07-20.73 9.8-11.14 19.83-22.73 22.3-25.75 2.59-3.19 4.96-7.39 5.63-10 0.64-2.48 2.73-23.18 4.66-46 1.93-22.82 4.23-50.95 5.11-62.5 0.88-11.55 1.92-30.11 2.29-41.25 0.38-11.14 0.58-20.25 0.44-20.25-0.14 0-2.26 2.81-4.72 6.25zm-295.68 120.82c-4.12 4.64-10.84 12.16-14.92 16.72-4.09 4.56-7.2 8.43-6.93 8.61 0.28 0.17 3.32 1.28 6.75 2.46 3.84 1.31 6.45 1.75 6.75 1.14 0.28-0.55 0.39-1.23 0.25-1.51-0.13-0.27-0.92-0.65-1.75-0.83-0.82-0.18-2.75-0.97-4.28-1.74-1.52-0.78-2.76-1.98-2.75-2.67 0.03-0.93 0.67-1 2.53-0.25 1.38 0.55 4.08 1 6 1 1.93 0 4.29 0.41 5.25 0.9 0.97 0.5 3.33 1.06 5.25 1.25 2.99 0.3 3.58 0.79 4.06 3.35 0.31 1.65 0.91-3.52 1.34-11.5 0.42-7.98 0.59-16.94 0.36-19.93l-0.42-5.42zm-60.61 67.67c-27 29.54-27.18 29.77-24.87 31.25 1.28 0.83 7.78 6.68 14.46 13 6.68 6.33 12.71 12.54 13.41 13.8 0.95 1.74 1.88 2.18 3.77 1.79 1.37-0.28 10.37-2.14 20-4.14 9.62-1.99 17.95-4.17 18.5-4.85 0.55-0.67 4.03-10.3 7.75-21.41 6.03-18.05 6.6-20.42 5.4-22.44-0.73-1.23-5.68-6.86-11-12.5-5.31-5.63-9.44-10.58-9.18-11 0.26-0.41-0.68-1.87-2.08-3.25-1.4-1.37-3.53-4.19-4.72-6.27-1.2-2.07-2.64-3.76-3.22-3.75-0.57 0.01-13.27 13.41-28.22 29.77zm-22.25 105c-0.01 0.97-4.8 10.98-10.63 22.25-5.84 11.28-18.26 34.9-27.61 52.5-9.34 17.6-17.39 32.45-17.89 33-0.49 0.55-0.88 1.68-0.88 2.5 0 0.83 6.92 17.03 15.36 36 8.45 18.98 19.14 42.73 23.76 52.79 4.62 10.05 8.74 18.27 9.16 18.25 0.41-0.02 0.93-0.82 1.15-1.79 0.23-0.96 6.79-15.92 14.59-33.25 7.8-17.32 17.35-38.7 21.22-47.5 6.33-14.37 7.03-16.6 6.92-22-0.07-3.3-1.03-16.57-2.14-29.5-1.1-12.92-2-26.31-2-29.75 0-3.43 1.38-13.33 3.05-22 1.67-8.66 2.91-16.11 2.75-16.55-0.16-0.45-3.78-2.36-8.04-4.25-4.27-1.9-9.22-4.46-11-5.7-1.79-1.23-3.48-2.48-3.75-2.77-0.28-0.29-2.98-1.3-6-2.24-3.03-0.94-6.07-1.72-6.75-1.72-0.69-0.01-1.26 0.77-1.27 1.73zm-10.98 221c0 0.42-6.41 7.77-14.25 16.35-7.84 8.57-19.51 21.17-25.92 28l-11.67 12.4c-0.9 72.47-0.94 93.5-0.66 93.5 0.27 0 8.26-2.43 17.75-5.41 9.48-2.98 18.48-5.91 20-6.5 2.24-0.89 4.15-3.99 10.38-16.84 4.2-8.66 9.52-19.8 11.82-24.75l4.17-9c-1.91-16.27-4.14-36.18-6.18-54.75-2.05-18.56-4.1-33.75-4.58-33.75-0.48 0-0.86 0.34-0.86 0.75z"/>
		<path id="Path 4" class="s4" d="m165.05 142.25c-2.54 1.29-7.03 5.22-10.5 9.19-3.33 3.82-8.3 9.4-11.05 12.4-2.75 3-6.8 6.75-9 8.34-2.33 1.68-5.25 2.87-7 2.85-1.65-0.02-5.7-1.3-9-2.85-3.3-1.55-8.81-4.7-12.25-7-3.44-2.3-7.12-4.18-8.18-4.18-1.06 0-2.63 0.68-3.5 1.5-0.86 0.82-1.82 2.96-2.13 4.75-0.3 1.79-1.57 20.35-2.8 41.25-1.24 20.9-1.89 38.11-1.44 38.25 0.44 0.14 0.8 0.7 0.8 1.25 0 0.55 0.53 2.24 1.18 3.75 0.65 1.51 1.35 3.65 1.55 4.75 0.2 1.1 0.45 2.74 0.57 3.65 0.11 0.91 0.54 1.48 0.95 1.25 0.41-0.22 0.97 0.28 1.25 1.1 0.27 0.82 0.27 1.95 0 2.5-0.28 0.55-0.05 1 0.5 1 0.55 0 0.77 0.45 0.5 1-0.28 0.55 0.17 2.35 1 4 0.82 1.65 1.84 2.99 2.25 2.98 0.41-0.01 2.1 2.75 3.75 6.13 1.65 3.39 3.04 6.66 3.1 7.28 0.05 0.61 0.16 1.67 0.25 2.36 0.09 0.72 0.67 0.93 1.38 0.5 0.87-0.53 1.02-0.24 0.5 1-0.41 0.99-0.29 1.75 0.27 1.75 0.56 0 0.68 0.76 0.27 1.75-0.52 1.24-0.37 1.53 0.5 1 0.72-0.44 1.44-0.13 1.73 0.75 0.27 0.82 0.16 2.06-0.25 2.74q-0.74 1.23 0.5 0.5c0.8-0.48 1.48 0.06 1.91 1.51 0.36 1.24 4.41 9.9 9 19.25 4.59 9.35 8.12 17.56 7.84 18.25-0.27 0.69-0.16 1.04 0.25 0.79 0.41-0.26 1.65 1.41 2.75 3.72 1.1 2.3 2.97 5.32 4.16 6.71 1.19 1.39 2.34 3.65 2.55 5.03 0.21 1.37 1.02 3.62 1.81 5 0.78 1.37 1.97 4.07 2.64 6 0.67 1.93 0.91 3.95 0.54 4.5q-0.68 1 0.74 0c1.18-0.82 1.28-0.56 0.56 1.5-0.64 1.84-0.56 2.3 0.32 1.75 0.68-0.43 1.39-0.12 1.68 0.75 0.27 0.82 0.27 1.95 0 2.5-0.28 0.55 0.06 0.89 0.74 0.75 0.8-0.16 1.16 0.81 1.02 2.75-0.16 2.12-0.01 2.46 0.51 1.18 0.62-1.55 1-1.28 2.48 1.75 0.96 1.96 1.41 3.55 1 3.53-0.41-0.02-1.31-0.81-2-1.75-0.69-0.94 0.13 1.44 1.82 5.29 1.7 3.85 5.16 10.82 7.7 15.5 2.54 4.68 4.98 8.61 5.42 8.75 0.45 0.14 0.58 0.7 0.31 1.25-0.28 0.55-0.05 1 0.5 1 0.55 0 2.79 3.26 4.99 7.25 2.19 3.99 3.99 8.15 4 9.25 0.01 1.1 0.92 3.46 2.01 5.25 1.46 2.36 2.75 3.26 4.75 3.3 1.95 0.03 3.51-0.92 5.36-3.25 1.43-1.82 2.96-4.43 3.4-5.8 0.45-1.38 2.31-5.76 4.15-9.75 1.84-3.99 3.67-9.61 4.06-12.5 0.4-2.89 0.73-9.07 0.73-13.75 0-4.68-0.77-17.27-1.73-28-0.96-10.73-2.42-26.25-3.27-34.5-0.84-8.25-3.76-33-6.48-55-2.73-22-5.86-50.35-6.96-63-1.09-12.65-2.88-31.1-3.97-41-1.09-9.9-2.14-21.94-2.34-26.75l-0.36-8.75c-4.53 0-7.84 1.01-10.29 2.25zm676.21 0.04c-0.53 0.71-2.14 11.17-3.59 23.25-1.44 12.08-3.74 31.18-5.1 42.46-1.37 11.28-6.35 52.68-11.08 92-4.73 39.32-9.47 77.57-10.54 85-1.07 7.43-1.91 14.62-1.88 16 0.07 2.31 0.14 2.35 0.98 0.5 0.84-1.83 0.91-1.78 0.82 0.5-0.05 1.37-0.06 2.95-0.01 3.5 0.04 0.55 1.21 2.24 2.61 3.75 1.6 1.74 2.35 3.49 2.03 4.75-0.27 1.1-0.05 2.23 0.5 2.5 0.58 0.29 0.73-0.23 0.35-1.25-0.45-1.23-0.32-1.45 0.45-0.75 0.6 0.55 3.63 6.18 6.74 12.5 3.42 6.95 5.42 12.19 5.06 13.25-0.33 0.96-0.15 1.75 0.4 1.75 0.55 0 0.77 0.45 0.5 1-0.27 0.55 0.17 1.23 1 1.5 0.83 0.27 1.27 1.18 1 2-0.27 0.82-0.05 1.27 0.5 1 0.55-0.27 1.23-0.05 1.5 0.5 0.27 0.55 1.17 0.77 2 0.5 0.83-0.27 1.5-0.05 1.5 0.5 0 0.55 0.9 1 2 1q2 0 1.5-1.5c-0.27-0.82-0.05-1.27 0.5-1 0.55 0.27 1.56-1.53 2.25-4.01 0.69-2.48 1.59-4.51 2-4.5 0.41 0.01 0.64-0.81 0.5-1.82-0.14-1.01 0.87-4.27 2.25-7.25 1.37-2.98 2.84-5.53 3.25-5.67 0.41-0.14 0.76-0.81 0.78-1.5 0.01-0.69 1.25-3.82 2.75-6.97 1.49-3.15 2.95-5.55 3.22-5.34 0.27 0.21 0.57-0.37 0.66-1.28 0.08-0.91 1.7-4.81 3.6-8.66 1.89-3.85 4.91-9.93 6.7-13.5 1.79-3.57 3.7-6.73 4.23-7 0.54-0.27 1-0.95 1.01-1.5 0.02-0.55 0.55-1.79 1.17-2.75 0.62-0.96 1.48-1.41 1.91-1 0.44 0.41 0.66-0.74 0.5-2.57-0.15-1.83 0.26-3.63 0.91-4 0.66-0.37 1.8-2.48 2.55-4.68 0.75-2.2 1.91-3.89 2.56-3.75 0.66 0.14 2.1-2 3.2-4.75 1.1-2.75 1.67-5.56 1.26-6.25q-0.73-1.24 0.5-0.5 1.24 0.74 1.24-1.25c0-1.1 0.23-2.68 0.5-3.5 0.27-0.82 0.95-1.27 1.5-1 0.6 0.3 0.71-0.2 0.27-1.25-0.44-1.06-0.34-1.49 0.25-1.1 0.54 0.36 1.05-0.09 1.13-1 0.08-0.91 0.41-3.22 0.72-5.15 0.32-1.93 1.49-4.74 2.6-6.25 1.12-1.51 2.03-3.2 2.03-3.75 0-0.55 2.75-6.51 6.12-13.25 3.36-6.74 6.51-12.36 7-12.5 0.48-0.14 0.88-1.15 0.88-2.25 0-1.1 0.45-1.77 1-1.5 0.55 0.27 1.31-0.51 1.69-1.75 0.38-1.24 0.74-2.7 0.81-3.25 0.06-0.55 0.46-1.9 0.89-3 0.42-1.1 3.32-7.51 6.44-14.24 4.67-10.07 5.91-12.01 7.02-11 1.12 1.02 1.23 0.8 0.64-1.26-0.39-1.38-0.22-3.4 0.37-4.5 1.02-1.89 1.08-1.86 1.08 0.5 0 1.37 0.35 2.11 0.78 1.64 0.43-0.47 1.06-2.94 1.4-5.5 0.35-2.55 0.01-16.11-0.73-30.14-0.75-14.03-1.76-31.8-2.24-39.5-0.5-8.02-1.47-15.28-2.27-17-0.91-1.96-2.26-3.11-3.89-3.31-1.65-0.2-5.02 1.34-9.99 4.59-4.13 2.69-9.52 5.92-12 7.18-2.48 1.25-6.08 2.25-8 2.2-2.48-0.06-4.86-1.18-8.18-3.87-2.57-2.09-8.42-8.26-13-13.72-4.57-5.46-9.88-11.08-11.79-12.5-1.91-1.41-5.06-3.11-7-3.78-1.94-0.66-5.84-1.22-8.67-1.25-3.07-0.02-5.52 0.48-6.1 1.25zm-162.35 268.01c0.03 0.66 2.2 2.81 4.82 4.79 2.63 1.97 8.79 6.47 13.71 10 5.64 4.04 10.08 6.49 12 6.63 1.68 0.12 6.1 2.03 9.81 4.25 4.04 2.41 6.55 4.53 6.25 5.28-0.29 0.71 1.21 2.21 3.5 3.5 2.2 1.24 4.45 2.25 5 2.25 0.55 0-3.15-4.84-8.22-10.75-5.08-5.91-9.91-11.2-10.75-11.75-0.84-0.54-4.91-2.39-9.03-4.1-4.13-1.71-11.92-4.96-17.32-7.21-5.93-2.47-9.8-3.62-9.77-2.89zm-365.3 10.17c-0.64 0.57-1.64 1.18-2.23 1.36-0.58 0.18-1.88 0.86-2.88 1.5-1 0.64-6.36 6.29-11.91 12.56-5.55 6.26-12.11 13.66-14.59 16.44l-4.5 5.05c7.75-5.94 10.45-8.19 11-8.84 0.55-0.64 3.48-3.15 6.5-5.56 3.02-2.42 8.76-7.56 12.74-11.44 3.98-3.87 7.26-7.49 7.29-8.04 0.03-0.55 1.05-1.79 2.26-2.75l2.21-1.76c-3.66 0.36-5.25 0.92-5.89 1.48z"/>
		<path id="Path 5" fill-rule="evenodd" class="s5" d="m758.29 294.5l8.46 17.5c4.65 9.63 13.3 27.85 19.22 40.5 5.92 12.65 12.18 26.26 13.9 30.25 1.72 3.99 3.13 7.36 3.12 7.5 0 0.14-2.59 0.12-5.75-0.04-4.47-0.23-6.12 0.1-7.47 1.5-0.95 0.98-5.28 12.36-9.63 25.29-4.35 12.93-10.39 30.02-13.44 38-3.04 7.98-5.79 15.29-6.11 16.25-0.33 0.96-1.04 1.75-1.59 1.75-0.55 0-8.76-9.1-18.25-20.22-9.49-11.11-17.25-20.53-17.25-20.91 0-0.39-0.33-1.08-0.74-1.54-0.41-0.46-0.19-1.48 0.5-2.27 0.99-1.15 0.99-1.3-0.01-0.75-0.71 0.39-1.47 0.04-1.75-0.81-0.36-1.09 0.05-1.36 1.5-1 1.73 0.43 2.27-0.43 3.98-6.25 1.09-3.71 4.66-18.9 7.95-33.75 3.28-14.85 6.28-28.8 6.67-31 0.6-3.38 0.49-3.84-0.74-3-0.8 0.55-0.73 0.33 0.16-0.5 0.89-0.82 2.66-5.77 3.94-11 1.27-5.23 2.7-9.95 3.16-10.5 0.46-0.55 1.76-4.82 2.89-9.5 1.13-4.68 3.23-12.32 4.66-17zm-23.77 38.5c0.12 0 0.17 2.43 0.1 5.4-0.06 3.11-0.46 4.91-0.93 4.25-0.48-0.67-0.69 0.17-0.5 1.99 0.18 1.84-0.08 2.88-0.64 2.5-0.58-0.39-0.67 0.44-0.25 2.11 0.44 1.72 0.33 2.56-0.29 2.25-0.55-0.27-1.18 0.96-1.39 2.75-0.21 1.79 0.13 3.86 0.75 4.61 0.88 1.04 0.81 1.27-0.29 1-0.99-0.25-1.69 1.01-2.29 4.14-0.48 2.48-1.08 4.27-1.33 4-0.26-0.27 1.17-8.26 3.19-17.75 2.01-9.49 3.75-17.25 3.87-17.25zm-373.26 23.3c2.33 0.71 6.72 2.67 9.75 4.36 3.02 1.68 9.55 5.87 14.5 9.3 4.95 3.43 9.9 7.18 11 8.33 1.1 1.15 1.32 1.56 0.5 0.91-0.83-0.65-1.85-0.85-2.28-0.44-0.43 0.41-0.77 0.18-0.75-0.51 0.02-0.92-0.51-0.98-1.97-0.25-1.47 0.73-1.99 0.67-1.97-0.25 0.02-0.69-1.11-0.01-2.5 1.5-1.39 1.51-2.53 2.3-2.53 1.75 0-0.55-0.68-1-1.5-1-0.83 0-1.73-0.68-2-1.5-0.28-0.82-1.07-1.49-1.75-1.47-0.69 0.01-2.38-1.13-3.75-2.53-1.38-1.4-2.05-2.53-1.5-2.51 0.55 0.03-0.58-1.52-2.5-3.44-1.93-1.91-3.73-3.29-4-3.05-0.28 0.23-1.63-0.96-3-2.66-2.1-2.59-2.26-3.21-1-3.86 1.04-0.53 0.36-0.95-2.25-1.37-2.07-0.34-3.98-1.06-4.25-1.61-0.3-0.58 1.26-0.46 3.75 0.3zm363.16 22.77c0.26 0.31-0.18 4.03-0.97 8.25-0.8 4.22-1.21 8.92-0.93 10.43 0.4 2.13 0.33 2.3-0.33 0.75-0.64-1.53-1.23-0.07-2.51 6.25-0.92 4.54-1.35 9.04-0.95 10 0.52 1.24 0.38 1.53-0.5 1q-1.23-0.77-1.24 1.5c-0.01 1.24-0.49 2.93-1.08 3.75-0.81 1.14-0.91 0.77-0.41-1.5 0.37-1.65 2.43-11.21 4.59-21.25 2.15-10.04 3.9-18.59 3.89-19-0.02-0.41 0.18-0.49 0.44-0.18zm-307.91 14.6c5.5 4.45 11.17 9.39 12.6 10.97 1.44 1.57 4.47 5.45 6.75 8.61 2.28 3.16 4.15 6.09 4.16 6.5 0.01 0.41-2.02-2.06-4.5-5.5-2.48-3.44-5.75-7.64-7.26-9.34-1.52-1.7-4.22-3.73-6-4.5-1.79-0.78-3.03-1.86-2.75-2.41 0.27-0.55-0.07-1-0.75-0.99-0.69 0.01-1.93-0.9-2.75-2.01-0.83-1.11-1.95-2.05-2.5-2.08-0.55-0.04-2.35-1.71-4-3.71-2.12-2.57-0.05-1.26 7 4.46zm-8.05 1.33c0.28 0 0.29 0.68 0.03 1.5q-0.48 1.5 1.02 1c0.82-0.27 1.5-0.05 1.5 0.5 0 0.55 0.45 0.77 1 0.5 0.55-0.27 1.02-0.16 1.04 0.25 0.03 0.41-0.67 1.43-1.54 2.25-0.87 0.82-1.45 2.18-1.29 3 0.16 0.82 1.72 2.62 3.48 4 1.76 1.37 4.06 3.62 5.11 5 1.05 1.37 5.43 7.68 9.74 14 4.31 6.32 10.09 14.87 12.85 19 2.76 4.12 5.15 8.18 5.3 9 0.22 1.22 0.04 1.26-0.96 0.2-0.68-0.71-1.24-1.61-1.26-2-0.01-0.38-2.42-3.18-5.34-6.2-2.93-3.02-13.83-15.51-24.23-27.75-10.4-12.24-18.9-22.48-18.9-22.75 0-0.27 1.57 0.4 3.5 1.5 1.92 1.1 3.27 1.55 3 1-0.28-0.55 0.62-1 2-1 1.37 0 2.71-0.68 2.97-1.5 0.26-0.82 0.7-1.5 0.98-1.5zm58.97 62.75c2.75 3.26 4.27 4.25 6.58 4.25 1.65 0 2.81 0.34 2.58 0.75-0.23 0.41-2.03 0.64-4 0.5-2.63-0.18-3.72-0.78-4.08-2.25-0.28-1.1-1.25-2-2.17-2-0.92 0-1.38-0.34-1.03-0.75 0.35-0.41 0.17-1.65-0.4-2.75-0.58-1.1 0.56-0.09 2.52 2.25zm1.49 11.87c0.32 0.3 0.81 3.41 1.59 13.27l-2.84-2.7c-1.56-1.48-3.56-4.04-4.44-5.69-1.48-2.79-1.48-2.95 0.09-2.25q1.69 0.75 3.35-1.22c0.92-1.08 1.93-1.72 2.25-1.41zm74.65 0.46c0.03-0.04 0.14 1.38 0.25 3.17 0.1 1.79 0.69 5.5 1.31 8.25 0.62 2.75 7.04 16.48 14.25 30.5 7.22 14.02 13.07 26.4 13.01 27.5-0.06 1.1-5.19 11.67-11.4 23.5-6.2 11.83-18.9 35.9-45.17 85.5l4.78 11c2.62 6.05 11.67 26.3 35.43 79l-1.58 7c-0.86 3.85-1.43 10-1.26 13.67 0.17 3.67-0.03 7.05-0.46 7.5-0.43 0.46-0.75 1.5-0.72 2.33 0.04 0.83-9.17 11.51-20.47 23.75-11.29 12.24-20.98 22.25-21.53 22.25-0.55 0-1.12-0.39-1.25-0.88-0.14-0.48-9.03-10.65-19.75-22.6-10.73-11.95-19.95-23.06-20.5-24.69-0.55-1.63-1.4-2.6-1.89-2.15-0.48 0.45-0.3-0.08 0.4-1.18 1.02-1.6 1.04-3.92 0.12-11.5-0.64-5.23-1.3-10.4-1.47-11.5-0.17-1.1 3.26-9.65 7.62-19 4.37-9.35 14.17-30.73 35.63-78l-19.33-33c-10.63-18.15-24.34-41.66-41.58-71.5l3.37-6.25c1.86-3.44 7.52-14.35 12.58-24.25 5.07-9.9 10.07-20.59 11.13-23.75 1.05-3.16 1.92-7.66 1.93-10 0.01-3.07 0.28-3.83 0.96-2.75 0.82 1.28 5.14 1.48 29.74 1.36 23.42-0.11 29.44-0.42 32.29-1.67 1.92-0.84 3.52-1.56 3.56-1.61zm151.94 2.92c0.09 0 0.13 0.68 0.08 1.5q-0.07 1.51-3.33 1.5c-2.42 0-3.38 0.51-3.75 2-0.28 1.1-1.29 2.02-2.25 2.04-1.44 0.04-1.54-0.23-0.54-1.5 0.98-1.24 0.94-1.54-0.25-1.54-0.8 0-1.46 0.45-1.46 1 0 0.58-0.95 0.7-2.25 0.29-1.37-0.43-2-0.34-1.6 0.25 0.39 0.57-1.61 1-5 1.06-3.11 0.05-5.2-0.07-4.65-0.26 0.55-0.19 6.17-1.47 12.5-2.84 6.32-1.37 11.68-2.71 11.91-2.99 0.23-0.28 0.49-0.51 0.59-0.51zm6.19 6.42c0.9 0.04 5.04 3.82 9.22 8.38 4.17 4.57 7.92 8.95 8.34 9.75 0.41 0.8 0.63 1.6 0.5 1.79-0.14 0.18-22.08 4.28-48.75 9.1-26.68 4.82-55.7 10.06-64.5 11.64-8.8 1.59-16.34 2.89-16.75 2.9-0.42 0.01 0.14-1.22 1.23-2.73 1.54-2.14 2.15-5.23 3.52-25.06l8.5-1.73c4.67-0.95 13.22-2.78 19-4.07 10.18-2.27 10.57-2.29 13-0.54 1.37 0.99 4.07 2.34 6 2.99 1.92 0.66 3.61 1.19 3.75 1.18 0.13-0.01 0.13-0.54 0-1.18-0.14-0.64 0.7-1.43 1.87-1.75 1.74-0.48 1.97-1 1.25-2.84-0.48-1.24-1.1-2.25-1.37-2.25-0.28 0-0.32 0.34-0.1 0.75 0.22 0.41-0.64 0.75-1.91 0.75-1.27 0-2.54-0.23-2.82-0.5-0.28-0.27 0.02-0.57 0.66-0.66 0.64-0.09 6.12-1.33 12.17-2.74 6.05-1.42 11.9-2.54 13-2.49 1.1 0.06 0.21 0.65-2 1.33-2.75 0.85-3.53 1.44-2.5 1.91 0.82 0.37-0.53 0.48-3 0.26-2.48-0.23-5.4-0.04-6.5 0.42-1.1 0.46-1.44 0.86-0.75 0.9 0.68 0.04 1.25 0.52 1.25 1.07 0 0.55-0.55 0.66-1.21 0.25-0.89-0.55-1.02-0.08-0.48 1.75 0.59 2.03 0.44 2.36-0.79 1.75-1.11-0.55-1.43-0.28-1.18 1 0.26 1.36 1.54 1.82 5.75 2.05 3.36 0.18 10.7-0.87 19.41-2.79 7.7-1.7 15.91-3.97 18.25-5.05 2.33-1.08 4.71-2.78 5.28-3.79 0.57-1.01 1.77-1.8 2.66-1.75z"/>
		<path id="Path 6" class="s6" d="m797.5 155.74c-7.34 5.2-8.41 5.65-13 5.5-2.75-0.09-6.58 0.42-8.5 1.15-1.92 0.72-4.96 1.83-6.75 2.46-2.86 1.01-3.55 2.03-5.73 8.4-1.36 3.99-3.58 11.3-4.93 16.25-1.36 4.95-2.93 11.47-3.51 14.5-0.57 3.02-2.41 19.45-4.09 36.5l-3.05 31c22.7 47.27 32.89 68.65 37.29 78 4.39 9.35 9.1 19.48 10.47 22.5 1.83 4.07 2.68 5.11 3.28 4 0.45-0.82 1.79-6 2.98-11.5 1.19-5.5 2.82-17.65 3.61-27 0.8-9.35 3.04-28.02 5-41.5 1.95-13.48 4.89-33.5 6.53-44.5 1.64-11 3.63-28.1 4.41-38 0.79-9.9 1.69-20.03 2.01-22.5 0.32-2.48 1.73-10.8 3.13-18.5 2.19-11.97 2.37-14.36 1.25-16.5-0.72-1.38-1.37-2.95-1.45-3.5-0.08-0.55-0.22-1.45-0.31-2-0.1-0.55-0.61-0.32-1.14 0.5-0.53 0.82-0.96 2.62-0.95 4 0.01 1.37-0.79 3.3-1.77 4.28-1.71 1.7-1.85 1.67-3.53-0.75-0.96-1.39-1.75-3.21-1.75-4.03 0-0.89-1.22-1.7-3-2-1.65-0.28-3-0.95-3-1.5 0-0.55-1.24-0.98-2.75-0.96-1.69 0.02-5.83 2.22-10.75 5.7zm-529.79 133.51c-3.64 7.29-14.75 29.68-24.68 49.75-9.94 20.07-18.62 38.19-19.3 40.26-1.19 3.64-1.13 3.85 1.99 6.5 2.56 2.18 5.7 8.47 15.31 30.74 6.65 15.4 12.51 28.45 13.02 29 0.61 0.66 1.79 0.49 3.46-0.5 2.37-1.4 2.64-1.35 4.01 0.75 1.28 1.95 1.75 2.08 3.51 1 1.64-1.01 2.17-1 2.75 0.08 0.58 1.08 1.04 1.03 2.4-0.25 0.92-0.87 2.27-1.57 3-1.56 0.73 0.01 3.84-3.03 6.92-6.75 3.09-3.72 9.95-11.38 15.25-17.02 5.31-5.64 9.65-10.48 9.65-10.75 0-0.27-1.01-0.52-2.25-0.54-1.24-0.02-4.28-1.54-6.75-3.38-3.59-2.66-5.05-4.72-7.25-10.21-1.51-3.78-2.74-7.66-2.75-8.62 0-0.96 0.79-2.93 1.75-4.36 0.96-1.44 3.45-3.58 5.52-4.75 2.08-1.18 3.77-2.7 3.75-3.39-0.01-0.69-1.16-6.54-2.55-13-1.4-6.46-3.42-15.57-4.5-20.25-1.88-8.14-2.11-8.54-5.22-9.39-1.79-0.49-3.54-0.94-3.89-1-0.35-0.06-1.76-1.23-3.14-2.61-1.38-1.37-2.64-3.4-2.8-4.5-0.17-1.1 0.07-3.12 0.53-4.5 0.45-1.37 1.7-3.62 2.78-5 1.07-1.37 2.47-2.51 3.11-2.52 0.7-0.02 1.06-1.4 0.91-3.5-0.14-1.92-1.6-10.12-3.23-18.23-1.63-8.11-3.36-14.75-3.84-14.75-0.47 0-3.84 5.96-7.47 13.25zm48.5 187.09c-2.06 2.29-6.78 8.55-10.48 13.91-3.7 5.36-6.73 10.2-6.73 10.75 0 0.55 0.22 1 0.5 1 0.27 0 11.64 2 25.25 4.45 13.61 2.45 38.02 6.67 54.25 9.39 16.22 2.71 33.32 5.47 38 6.13 4.67 0.66 9.85 1.46 11.5 1.79l3 0.6c-2.71-3.77-4.17-6.1-5-7.61-1.13-2.07-1.25-3.43-0.5-5.5 0.55-1.51 1.57-6.13 2.27-10.25 0.69-4.13 1.14-8.18 0.98-9-0.19-1.01-2.48-1.88-7.02-2.66-3.7-0.63-15.51-2.56-26.23-4.27-10.73-1.72-30.75-4.96-44.5-7.2-13.75-2.25-26.47-4.44-28.27-4.88-3-0.74-3.59-0.46-7.02 3.35z"/>
		<path id="Path 7" class="s7" d="m192.33 140.57c-0.45 0.88-1.17 1.57-1.58 1.52-0.41-0.05-1.89 0.47-3.28 1.16-1.46 0.72-2.52 2.09-2.5 3.25 0.01 1.1 1.59 16.63 3.51 34.5 1.91 17.88 4.15 39.03 4.97 47 0.82 7.98 2.84 27.1 4.5 42.5 1.66 15.4 4.16 38.8 5.57 52 1.4 13.2 3.42 32.32 4.49 42.5 1.06 10.18 2.4 22.1 2.97 26.5 0.57 4.4 1.48 8.11 2.03 8.25 0.62 0.16 0.67 1.28 0.13 3-0.47 1.51-3.57 9.05-6.88 16.75-3.31 7.7-6.18 14.9-6.39 16-0.2 1.1-0.63 2.23-0.95 2.5-0.31 0.27-2.72 5.23-5.34 11-2.62 5.77-5.49 12.3-6.36 14.5-0.88 2.2-1.77 4.23-1.98 4.5-0.21 0.27-1.13-0.56-2.06-1.86l-1.68-2.37c-4.02 5.04-4.26 5.91-3.28 6.46 0.97 0.56 0.91 0.74-0.22 0.72-0.83-0.01-2.28 0.79-3.22 1.77-1.65 1.69-1.56 1.84 1.75 3.03 3.25 1.17 3.64 1.08 6.22-1.5 1.51-1.51 3.2-2.81 3.75-2.88 0.55-0.08 1.45-0.22 2-0.32 0.55-0.11 0.1-0.56-1-1.01-1.76-0.73-1.51-1.04 2.14-2.68 2.27-1.02 5.01-2.98 6.08-4.36 1.07-1.37 4.61-8.01 7.86-14.74 3.26-6.73 5.58-12.47 5.17-12.75-0.41-0.28 1.59-5.35 4.44-11.26 2.86-5.91 6.12-13.8 7.25-17.53 1.13-3.73 2.38-6.43 2.78-6 0.4 0.43 0.85-2.94 1-7.48 0.21-6.31-0.02-8.15-0.97-7.75-0.69 0.28-1.48 0.51-1.75 0.51-0.28 0-0.21 0.56 0.15 1.25 0.45 0.89 0.29 0.96-0.57 0.25-0.95-0.77-0.79-1.9 0.69-5 1.42-2.98 1.71-4.89 1.13-7.5-0.43-1.93-1.69-10.02-2.79-18-1.11-7.98-3.41-27.55-5.11-43.5-1.71-15.95-3.72-31.7-4.47-35-0.75-3.3-1.67-9.15-2.04-13-0.36-3.85-1.54-13.3-2.62-21-1.13-8.04-2.11-21.66-2.32-32-0.24-11.55-1.33-25.53-3.04-39-1.47-11.55-3.04-21.45-3.48-22-0.44-0.55-1.08-3.36-1.42-6.25-0.33-2.89-1.02-5.48-1.53-5.77-0.5-0.29-1.29 0.2-1.75 1.09zm165.11 251.23c0.45 2.59 0.87 4.8 0.94 4.93 0.07 0.13 3.04-1.27 6.62-3.12 4.87-2.51 6.06-3.5 4.75-3.98-1.07-0.38-2.04-0.04-2.5 0.88-0.66 1.34-0.92 1.34-2.25 0.03-0.83-0.82-3.04-1.92-4.93-2.46l-3.44-0.97zm439.11 0.19c-0.3 0.55-0.1 4.15 0.45 8 0.58 4.05 1.42 6.79 2 6.5 0.55-0.27 0.93 0.29 0.84 1.25-0.09 0.97-0.09 2.54 0 3.5 0.09 0.97 0.5 1.54 0.91 1.29 0.41-0.26 2.32 3 4.25 7.25 1.92 4.24 3.38 8.05 3.25 8.46-0.14 0.42 0.2 0.75 0.75 0.75 0.55 0 0.77 0.45 0.5 1-0.28 0.55-0.05 1 0.5 1 0.55 0 0.77 0.45 0.5 1-0.28 0.55-0.05 1 0.5 1 0.55 0 0.77 0.45 0.5 1-0.28 0.55-0.16 0.99 0.25 0.97 0.41-0.01 1.56 1.67 2.55 3.75 0.99 2.08 1.95 4.91 2.12 6.28 0.18 1.38 1.62 5.35 3.2 8.83 2.46 5.42 2.66 6.46 1.38 7.18-1.3 0.73-1.2 1.58 0.75 6.42 1.24 3.07 2.25 6.25 2.25 7.07 0 0.95-1.03 1.55-2.75 1.62l-2.75 0.12c4.56 0.98 5.75 1.71 5.59 2.26-0.16 0.55-0.64 1.68-1.08 2.5-0.57 1.1 2.01 0.56 9.52-2 5.66-1.92 10.67-3.89 11.13-4.37 0.48-0.5-0.24-0.53-1.66-0.07-1.98 0.63-2.36 0.5-1.84-0.63 0.37-0.78 0.26-2.1-0.23-2.93-0.8-1.33-0.9-1.33-0.88 0 0.01 1.18-0.45 1.07-2.13-0.5-1.18-1.1-3.62-4.92-5.42-8.5-1.8-3.57-8.56-17.75-15.01-31.5-6.45-13.75-12.84-27.47-14.2-30.5-1.35-3.02-3.21-6.09-4.12-6.82-1.03-0.82-1.1-1.01-0.17-0.51 1.06 0.57 1.28 0.45 0.75-0.43-0.41-0.68-0.95-1.24-1.2-1.24-0.25 0-0.7 0.45-1 1zm-438.15 11.3c-7.21 6.16-25.66 21.61-41 34.33-15.35 12.71-30.38 25.13-33.4 27.59-3.03 2.45-6.63 5.06-8 5.78-1.38 0.72-3.63 1.63-5 2.01-1.38 0.39-3.32 0.43-4.31 0.1-1.07-0.36-3.25-3.91-5.29-8.61-2.87-6.62-3.36-7.31-2.87-4 0.34 2.2 1.25 5.92 2.04 8.25 0.78 2.34 1.43 4.7 1.43 5.25 0 0.55 0.67 1.68 1.5 2.5 0.82 0.83 1.51 1.17 1.51 0.75 0.01-0.41 0.45-0.07 0.97 0.75 0.66 1.05 3.16 1.62 8.23 1.88 5.56 0.28 8.12-0.05 10.79-1.41 1.92-0.97 6.42-4.25 10-7.28 3.57-3.03 6.5-6 6.5-6.6 0-0.6 2.47-3.48 5.5-6.41 3.02-2.93 10.45-9.15 16.5-13.83 6.05-4.67 13.92-10.82 17.5-13.66 3.57-2.84 10.75-9.33 15.94-14.43 5.19-5.09 10.03-9.26 10.75-9.26 0.72 0 1.8-1.01 2.41-2.25 0.6-1.23 0.83-3.93 0.5-6-0.34-2.09-0.13-4.41 0.47-5.25 0.59-0.82 0.93-1.47 0.75-1.45-0.18 0.03-6.22 5.09-13.42 11.25zm268.7-4.76c-1.7 2.46-2.76 4.45-2.35 4.44 0.41-0.01 1.73 1.68 2.92 3.75 1.2 2.08 3.32 4.9 4.72 6.27 1.41 1.38 2.34 2.84 2.08 3.25-0.26 0.42 4.26 5.82 10.05 12 5.79 6.19 10.52 11.59 10.5 12-0.01 0.42 0.77 0.52 1.73 0.23 1.11-0.33 2.99 0.68 5.12 2.75 3.02 2.92 3.25 3.01 2.15 0.77-0.99-2.02-0.96-2.62 0.13-3.16 0.83-0.4 1.06-1.27 0.6-2.25-0.62-1.31-0.28-1.47 2-0.94 1.51 0.36 3.76 1.03 5 1.5 1.24 0.47 2.59 0.64 3 0.39 0.41-0.26 4.8 1.9 9.75 4.8 4.95 2.9 13.5 8.25 19 11.9 5.5 3.65 12.15 8.57 14.77 10.95 2.63 2.37 4.75 4.76 4.72 5.31-0.03 0.55 2.5 2.8 5.61 5 4.74 3.35 5.35 4.12 3.78 4.68-1.66 0.6-1.62 0.69 0.37 0.75 1.24 0.04 4.39 1.22 7 2.62 4.32 2.31 5.64 2.51 14.75 2.25l10-0.3c1.61-5.18 2.79-6.6 4-6.84 1.76-0.34 1.73-0.4-0.25-0.52-1.24-0.07-2.25-0.59-2.25-1.14 0-0.55 0.79-1.17 1.75-1.38 1.67-0.37 1.67-0.39 0-0.5-1.51-0.1-1.66-0.78-1.1-4.87 0.45-3.31 0.23-5.43-0.75-6.99-1.36-2.18-1.48-2.06-3.9 3.79-1.38 3.31-2.84 6.01-3.25 5.99-0.41-0.02-1.02 0.98-1.34 2.21-0.36 1.38-0.07 2.54 0.75 2.99 0.74 0.4 0.89 0.75 0.34 0.77-0.55 0.02-2.8-1.31-5-2.96-2.2-1.64-4.34-3-4.75-3.02-0.41-0.01-4.91-2.87-10-6.35-5.09-3.48-29.5-19.86-54.25-36.41-24.75-16.55-47.09-31.91-49.65-34.14l-4.64-4.05zm-179.11 62.46c0 0.55-0.45 0.78-1 0.5-0.55-0.27-0.98 0.07-0.97 0.75 0.02 0.69-0.32 0.92-0.75 0.52-0.43-0.4-1.61 0.27-2.63 1.5-1.02 1.23-2.6 3.15-3.5 4.26-0.91 1.11-4.46 4.15-7.9 6.75-3.43 2.6-6.58 4.7-7 4.68-0.41-0.03-1.27 0.54-1.91 1.25-0.64 0.71-1.32 1.97-1.5 2.79-0.19 0.82-1.01 2.09-1.84 2.82-0.87 0.78-0.93 0.99-0.13 0.51 0.79-0.48 1.62-0.37 2 0.27 0.35 0.61 2.43 1.36 4.63 1.67 3.85 0.55 4.46 0.21 16-8.92 6.6-5.22 12.68-10.14 13.5-10.93 1.33-1.29 1.16-1.74-1.5-3.96-1.65-1.39-2.55-2.48-2-2.44 0.55 0.04 0.33-0.64-0.5-1.52-0.82-0.87-1.83-1.57-2.25-1.54-0.41 0.02-0.75 0.49-0.75 1.04zm23.5 3.67c-0.46 0.37-0.7 1.83-0.55 3.25q0.29 2.56 0.67 0.83c0.21-0.96 0.72-1.73 1.13-1.71 0.42 0.02 1.34 0.81 2.05 1.75 0.75 0.98 0.64 0.33-0.25-1.54-0.85-1.78-1.7-3.25-1.88-3.25-0.18 0-0.71 0.3-1.17 0.67zm-56.75 57.85c0.69 0.26 1.23 1.27 1.21 2.23-0.02 0.97 4.14 5.74 9.25 10.62 5.11 4.88 9.74 9.13 10.29 9.44 0.55 0.31 4.15 1.15 8 1.86 4.58 0.85 7.33 0.96 7.95 0.32 0.61-0.63 0.46-0.99-0.41-0.99-0.76 0-1.08-0.33-0.73-0.75 0.35-0.41-0.07-2.1-0.94-3.75-0.86-1.65-1.29-3.78-0.97-4.75 0.46-1.33-0.06-1.87-2.15-2.24-1.51-0.28-4.32-2.09-6.25-4.02-1.92-1.94-5.52-4.16-8-4.92-2.47-0.77-6.3-1.68-8.5-2.02-2.2-0.34-5.35-0.82-7-1.07-1.65-0.25-2.43-0.23-1.75 0.04zm178.16 0.83c-3.02 0.76-6.59 2.87-10.39 6.15-3.18 2.75-5.56 5.45-5.28 6 0.28 0.55 2.71 1.65 5.39 2.43 2.68 0.78 5.1 1.7 5.37 2.04 0.28 0.33 2.75 2.06 5.5 3.84 2.75 1.78 5.34 3.23 5.75 3.22 0.42-0.02 3.45 1.32 6.75 2.97l6 3c0.06-3.48 0.74-4.95 1.54-5.5 1.16-0.8 0.6-1.46-2.79-3.31-3.69-2.02-3.92-2.05-1.75-0.28 1.38 1.13 2.92 2.06 3.42 2.07 0.5 0.01 0.73 0.27 0.5 0.56-0.23 0.3-3.79-1.09-7.92-3.09-6.77-3.29-7.5-3.92-7.5-6.54 0-1.6 0.34-2.91 0.75-2.91 0.42 0 0.53-0.67 0.25-1.5-0.27-0.82-0.05-1.5 0.5-1.5 0.55 0 1.34-1.77 1.75-3.95 0.54-2.81 0.39-4.11-0.5-4.5-0.68-0.3-1.58-0.5-2-0.45-0.41 0.05-2.81 0.62-5.34 1.25zm-89.84 293.9c-0.68 3.44-1.33 6.93-1.45 7.75-0.11 0.83-0.59 2.18-1.07 3-0.48 0.83-0.79 7.13-0.69 14 0.11 6.88 0.59 18.35 1.08 25.5 0.49 7.15 1.66 17.73 2.6 23.5 0.94 5.78 1.77 11.97 1.84 13.75 0.07 1.79 0.69 3.36 1.37 3.5 0.69 0.14 1.67 0.25 2.18 0.25 0.54 0 1.17-18.98 1.52-46l0.6-46c-4.3-4.29-5.82-5.53-6.15-5.52-0.33 0.01-1.15 2.84-1.83 6.27z"/>
		<path id="Path 8" class="s8" d="m748.05 276.25c-0.03 0.96-0.5 1.75-1.05 1.75-0.55 0-0.77 1.13-0.5 2.5 0.28 1.38 0.05 2.5-0.5 2.5-0.55 0-0.77 0.45-0.5 1 0.28 0.55 0.05 1.68-0.5 2.5-0.55 0.82-0.77 2.18-0.5 3 0.28 0.82 0.05 1.73-0.5 2-0.55 0.27-0.77 1.18-0.5 2 0.28 0.82 0.05 1.73-0.5 2-0.55 0.27-0.73 1.29-0.39 2.25 0.34 0.96 0.11 2.09-0.5 2.5-0.61 0.41-0.88 1.65-0.61 2.75 0.28 1.1 0.05 2-0.5 2-0.55 0-0.77 0.9-0.5 2 0.28 1.1 0.16 2.01-0.25 2.02-0.41 0.01-0.64 1.14-0.5 2.5 0.14 1.36-0.09 2.49-0.5 2.5-0.41 0.01-0.64 1.14-0.5 2.5 0.14 1.36-0.2 2.48-0.75 2.48-0.55 0-0.77 0.9-0.5 2 0.28 1.1 0.05 2-0.5 2-0.55 0-0.77 1.13-0.5 2.5 0.28 1.38 0.05 2.5-0.5 2.5-0.55 0-0.77 0.9-0.5 2 0.28 1.1 0.16 2.01-0.25 2.02-0.41 0.01-0.55 1.25-0.3 2.75 0.31 1.95 0.1 2.51-0.75 1.98-0.74-0.46-1.04-0.27-0.78 0.5 0.23 0.69 0.71 2.6 1.06 4.25 0.62 2.85 0.57 2.9-0.85 1-1.39-1.85-1.43-1.71-0.57 1.75 0.72 2.86 0.65 3.57-0.26 3-0.9-0.56-1 0.01-0.4 2.25 0.67 2.47 0.57 2.8-0.55 1.84-1.1-0.95-1.34-0.49-1.32 2.5 0.02 2.01 0.36 4.22 0.75 4.91q0.73 1.26-1.03 0.86c-1.44-0.31-1.67 0.17-1.31 2.75 0.31 2.25 0.09 2.93-0.75 2.39-0.82-0.52-1.03-0.12-0.69 1.25 0.28 1.1 0.16 2-0.25 2.01-0.41 0-0.84 1.91-0.95 4.25-0.12 2.33-0.62 4.47-1.12 4.74-0.5 0.27-0.89 1.4-0.87 2.5 0.03 1.1-0.03 3.24-0.13 4.75-0.1 1.51-0.52 2.57-0.93 2.35-0.41-0.23-0.71 2.81-0.66 6.75 0.06 4.31-0.21 6.36-0.68 5.15-0.73-1.89-0.77-1.88-0.84 0.25-0.04 1.24-0.41 2.07-0.82 1.86-0.41-0.22-0.55 1.02-0.31 2.75 0.25 1.83 0.04 2.87-0.5 2.49-0.56-0.39-0.89 1.66-0.82 5 0.1 5.15-0.01 5.47-1.32 3.65-1.37-1.92-1.4-1.9-0.77 0.5 0.36 1.37 0.35 3.62-0.03 5-0.54 1.95-0.87 2.17-1.47 1-0.66-1.28-0.87-1.24-1.4 0.25-0.39 1.07-0.14 1.75 0.62 1.74 0.69 0 3.21 2.13 5.62 4.75 2.4 2.62 3.87 4.08 3.27 3.26-0.8-1.1-0.77-1.87 0.13-2.9 0.98-1.1 0.97-1.26-0.02-0.75-0.69 0.36-1.47-0.03-1.75-0.85-0.36-1.09 0.05-1.36 1.5-1 1.73 0.43 2.27-0.43 3.98-6.25 1.09-3.71 4.66-18.9 7.95-33.75 3.28-14.85 6.28-28.8 6.67-31 0.6-3.38 0.49-3.84-0.74-3-0.8 0.55-0.73 0.33 0.16-0.5 0.89-0.82 2.66-5.77 3.94-11 1.27-5.23 2.7-9.95 3.17-10.5 0.46-0.55 1.53-3.93 2.37-7.5 0.85-3.57 2.92-11.23 4.61-17l3.08-10.5c-7.82-15.5-10.11-19.21-10.14-18.25zm-389.55 81.37c0.55 0.49 2.57 2.24 4.48 3.89 2.26 1.94 2.79 2.18 1.5 0.68-1.71-2-1.78-2.44-0.48-3.24 1.33-0.82 1.33-0.92 0-0.95-0.82-0.01-2.62-0.31-4-0.65-1.5-0.37-2.1-0.27-1.5 0.27zm29.21 21.26c-1.31 1.45-1.22 1.59 0.91 1.37 1.31-0.14 2.39 0.09 2.4 0.5 0.01 0.41-0.44 2.21-1 4-0.9 2.86-0.69 3.68 1.73 6.84 1.51 1.98 4.66 4.68 7 6 2.34 1.33 4.03 1.96 3.75 1.41-0.27-0.55 0.51-1.02 1.75-1.04 1.24-0.02 2.85-0.81 3.58-1.75 1.25-1.61 1.3-1.6 0.75 0.04-0.41 1.25-0.15 1.61 0.92 1.25 0.83-0.27 1.5-0.05 1.5 0.5 0 0.55 0.45 0.77 1 0.5 0.55-0.27 1.02-0.16 1.04 0.25 0.03 0.41-0.66 1.43-1.53 2.25-0.87 0.82-1.45 2.18-1.3 3 0.16 0.82 1.73 2.62 3.49 4 1.75 1.37 4.05 3.62 5.1 5 1.05 1.37 5.44 7.68 9.74 14 4.31 6.32 9.55 14.09 11.65 17.25 2.09 3.16 3.81 5.98 3.81 6.25 0 0.27-0.56 0.2-1.25-0.17-0.69-0.37-0.35 0.32 0.75 1.53 1.1 1.21 2.23 2.21 2.5 2.22 0.28 0-0.17-0.8-1-1.79-1.37-1.64-1.35-1.68 0.25-0.54 0.96 0.69 1.53 1.7 1.25 2.25-0.27 0.55 1.64 3.37 4.25 6.27 2.61 2.89 6.48 7.28 8.59 9.75 2.12 2.46 3.47 3.81 3 3-0.65-1.14-0.44-1.31 0.91-0.75 1.19 0.5 2.39 0.01 3.77-1.52 1.5-1.68 2.04-1.87 2.11-0.75 0.06 0.82 0.44-0.3 0.85-2.5 0.54-2.88 0.36-4.35-0.62-5.25-0.75-0.69-1.37-1.81-1.39-2.5-0.02-0.81 0.59-0.65 1.75 0.47 0.98 0.95 3.02 1.74 4.53 1.75 1.51 0.02 2.53 0.48 2.25 1.03-0.27 0.55-1.04 0.66-1.7 0.25-0.67-0.42-1-0.31-0.75 0.25 0.25 0.55 1.35 2.89 2.45 5.2 1.61 3.37 2.59 4.26 5 4.52 1.65 0.17 14.7 0.23 29 0.12 15.75-0.11 27.08-0.61 28.75-1.26 1.51-0.59 3.31-0.74 3.99-0.33q1.23 0.74 0.5-0.5c-0.41-0.69-0.4-1.36 0.01-1.5 0.41-0.14 1.99-1.94 3.5-4 1.7-2.32 2.27-3.79 1.5-3.86-0.69-0.06-2.26-0.06-3.5 0-1.24 0.06-2.25-0.34-2.25-0.89 0-0.65-10.03-0.91-28.6-0.75-15.72 0.14-28.77 0.59-29 1-0.22 0.41-3.44 0.47-7.15 0.13-4.83-0.45-7.44-1.23-9.16-2.75-1.33-1.17-2.11-1.57-1.75-0.88 0.36 0.69 0.1 1.25-0.59 1.25-0.69 0-1.31-0.56-1.37-1.25-0.07-0.69-0.3-1.85-0.5-2.59-0.21-0.74-1.62-2.65-3.13-4.25-1.51-1.6-2.52-3.36-2.25-3.91 0.28-0.55 0.09-1.11-0.4-1.25-0.5-0.14-2.73-2.73-4.96-5.75-2.23-3.02-3.74-5.95-3.36-6.5 0.42-0.6 0.2-0.7-0.54-0.25-0.76 0.46-1.46 0.07-1.8-1-0.32-0.96-0.54-1.86-0.5-2 0.03-0.14-1.52-1.94-3.46-4-1.93-2.06-3.51-4.54-3.5-5.5 0.01-0.96-0.43-1.52-0.98-1.25-0.55 0.27-1.3-0.29-1.66-1.25-0.36-0.96-0.59-2.09-0.5-2.5 0.09-0.41-0.18-0.55-0.59-0.31-0.41 0.25-1.64-0.99-2.73-2.75-1.09-1.75-1.84-3.64-1.67-4.19 0.18-0.55-0.06-0.67-0.52-0.27-0.45 0.41-1.61-0.27-2.56-1.5-0.96-1.23-1.41-2.68-1.01-3.23 0.43-0.6 0.22-0.7-0.52-0.25-0.68 0.41-1.46 0.3-1.74-0.25-0.27-0.55-2.07-1.68-4-2.5-1.92-0.82-3.27-1.95-3-2.5 0.28-0.55-0.06-1-0.75-0.99-0.69 0.01-1.92-0.9-2.75-2.01-0.82-1.11-2.06-2.02-2.75-2.01-0.69 0.01-1.3-0.55-1.37-1.24-0.06-0.69-0.06-1.59 0-2 0.07-0.41-0.33-0.52-0.88-0.25-0.55 0.27-2.17-0.96-3.6-2.75-1.43-1.79-2.3-2.57-1.93-1.75 0.37 0.82-0.53 0.15-2.01-1.5-1.47-1.65-2.37-2.32-2-1.5 0.38 0.82-0.52 0.15-2-1.5-1.47-1.65-2.32-2.32-1.88-1.5 0.66 1.23 0.54 1.28-0.64 0.26-0.79-0.69-1.79-0.91-2.22-0.5-0.43 0.41-0.76 0.18-0.75-0.51 0.02-0.92-0.5-0.98-1.97-0.25-1.1 0.55-2.18 0.61-2.41 0.13-0.22-0.48-1.07-0.14-1.88 0.75zm300.29 95.62c-2.47 0.72-3.83 1.34-3 1.38 0.83 0.04 3.3-0.34 5.5-0.85 2.53-0.59 4.37-0.58 5 0.04 0.65 0.62-0.31 0.96-2.75 0.95-2.92-0.02-3.86 0.42-4.25 1.98-0.27 1.1-1.29 2.02-2.25 2.04-1.38 0.04-1.52-0.27-0.66-1.5 0.83-1.16 0.77-1.54-0.25-1.54-0.74 0-1.34 0.45-1.34 1 0 0.58-0.94 0.7-2.25 0.29-1.82-0.57-2.06-0.44-1.25 0.7 0.82 1.17 0.46 1.31-2 0.78-1.65-0.34-3.9-0.93-5-1.29-1.67-0.56-1.75-0.48-0.5 0.51 1.21 0.95 0.86 1.06-1.75 0.59-2.01-0.36-3.06-0.2-2.75 0.42 0.28 0.55-1.19 1.27-3.25 1.61-2.9 0.47-3.41 0.82-2.25 1.58 1.05 0.68 0.14 0.83-3 0.49-2.47-0.26-5.4-0.11-6.5 0.35-1.1 0.46-1.44 0.86-0.75 0.9 0.69 0.04 1.25 0.52 1.25 1.07 0 0.55-0.54 0.66-1.21 0.25-0.89-0.55-1.02-0.08-0.48 1.75 0.59 2.03 0.45 2.36-0.79 1.75-1.11-0.55-1.43-0.28-1.18 1 0.27 1.36 1.54 1.81 5.75 2.04 3.16 0.17 10.6-0.82 17.91-2.38 6.88-1.46 14.86-3.51 17.75-4.54 2.9-1.03 6.03-2.97 7-4.34 0.96-1.36 2-2.37 2.31-2.25 0.31 0.12-0.93-1.24-2.75-3.03-1.82-1.79-3.87-3.21-4.56-3.15-0.69 0.05-3.27 0.68-5.75 1.4zm-43.5 11.45c-1.1 0.44-2.34 0.63-2.75 0.42-0.41-0.2-2.55-0.14-4.75 0.13l-4 0.5c3.49 2.85 6.08 4.21 8 4.86 1.92 0.64 3.61 1.17 3.75 1.16 0.14-0.01 0.14-0.54 0-1.18-0.14-0.64 0.71-1.43 1.88-1.75 1.74-0.48 1.96-1 1.25-2.84-0.49-1.24-0.99-2.22-1.13-2.18-0.14 0.04-1.15 0.43-2.25 0.88zm-88.72 254.55c-0.31 0.55-1.08 3.48-1.72 6.5-0.64 3.02-1.02 8.5-0.86 12.17 0.17 3.67-0.05 7.05-0.48 7.5-0.43 0.46-0.75 1.5-0.73 2.33 0.03 0.85 2.01-0.67 4.56-3.5 2.48-2.75 5.17-5.9 5.98-7 1.35-1.82 1.13-2.77-2.36-10.5-2.11-4.67-4.09-8.05-4.39-7.5zm-93.06 4.5c-0.94 2.2-1.45 4.79-1.13 5.75 0.49 1.43 0.42 1.48-0.38 0.25-0.78-1.21-1.19-0.87-2.09 1.75-1.07 3.09-0.88 3.54 3.88 9.25 2.75 3.3 5.23 6 5.5 6 0.28 0 0.28-0.9 0-2-0.31-1.23-0.98-1.73-1.75-1.31-0.74 0.41-0.63-0.05 0.25-1.12 1.2-1.45 1.34-3.16 0.71-8.44-0.44-3.65-0.98-8.32-1.22-10.38-0.24-2.06-0.79-3.75-1.24-3.75-0.44 0-1.58 1.8-2.53 4z"/>
		<path id="Path 9" class="s9" d="m175.52 149.75c0.36 5.36 1.5 17.18 2.54 26.25 1.03 9.07 2.79 27.07 3.91 40 1.12 12.93 4.27 41.5 6.99 63.5 2.73 22 5.65 46.75 6.49 55 0.85 8.25 2.31 23.77 3.27 34.5 0.96 10.73 1.73 23.32 1.73 28 0 4.68-0.33 10.86-0.73 13.75-0.39 2.89-2.22 8.51-4.06 12.5-1.84 3.99-3.7 8.38-4.15 9.75-0.44 1.38-1.97 3.98-3.4 5.8-1.85 2.33-3.41 3.28-5.36 3.25-2-0.04-3.29-0.94-4.75-3.3-1.09-1.79-2-4.15-2.01-5.25-0.01-1.1-1.81-5.26-4-9.25-2.2-3.99-4.44-7.25-4.99-7.25-0.55 0-0.78-0.45-0.5-1 0.27-0.55 0.14-1.11-0.31-1.25-0.44-0.14-2.88-4.07-5.42-8.75-2.54-4.68-6-11.65-7.7-15.5-1.69-3.85-2.51-6.23-1.82-5.29 0.69 0.94 1.59 1.73 2 1.75 0.41 0.02-0.04-1.57-1-3.53-1.48-3.03-1.86-3.3-2.48-1.75-0.52 1.28-0.67 0.94-0.51-1.18 0.14-1.94-0.22-2.91-1.02-2.75-0.68 0.14-1.02-0.2-0.74-0.75 0.27-0.55 0.27-1.68 0-2.5-0.29-0.87-1-1.18-1.68-0.75-0.88 0.55-0.96 0.09-0.32-1.75 0.72-2.06 0.62-2.32-0.56-1.5q-1.42 1-0.74 0c0.37-0.55 0.13-2.57-0.54-4.5-0.67-1.93-1.86-4.63-2.64-6-0.79-1.38-1.6-3.63-1.81-5-0.21-1.38-1.36-3.64-2.55-5.03-1.19-1.39-3.06-4.41-4.16-6.71-1.1-2.31-2.34-3.98-2.75-3.72-0.41 0.25-0.52-0.1-0.25-0.79 0.28-0.69-3.25-8.9-7.84-18.25-4.59-9.35-8.64-18.01-9-19.25-0.43-1.45-1.1-1.98-1.9-1.5q-1.23 0.74-0.5-0.5c0.41-0.69 0.51-1.93 0.24-2.75-0.29-0.88-1.01-1.19-1.73-0.75-0.87 0.53-1.02 0.24-0.5-1 0.41-0.99 0.29-1.75-0.27-1.75-0.56 0-0.68-0.76-0.27-1.75 0.52-1.24 0.37-1.53-0.5-1-0.71 0.43-1.29 0.22-1.38-0.5-0.09-0.69-0.2-1.75-0.25-2.36-0.06-0.62-1.45-3.89-3.1-7.28-1.65-3.38-3.34-6.14-3.75-6.13-0.41 0.01-1.43-1.33-2.25-2.98-0.83-1.65-1.28-3.45-1-4 0.27-0.55 0.05-1-0.5-1-0.55 0-0.78-0.45-0.5-1 0.27-0.55 0.27-1.68 0-2.5-0.28-0.82-0.84-1.32-1.25-1.1-0.41 0.23-0.84-0.34-0.95-1.25-0.12-0.91-0.37-2.55-0.57-3.65-0.2-1.1-0.9-3.24-1.55-4.75-0.65-1.51-1.18-3.2-1.18-3.75 0-0.55-0.45-1-1-1-0.62 0-0.89 3.56-0.72 9.25 0.28 8.91 0.48 9.65 5.68 20.25 2.96 6.05 5.76 11.11 6.21 11.25 0.46 0.14 0.83 0.93 0.83 1.75 0 0.82 0.86 3.19 1.91 5.25 1.04 2.06 2.67 5.55 3.61 7.75 0.93 2.2 2.89 6.48 4.34 9.5 1.45 3.02 2.98 5.61 3.39 5.75 0.41 0.14 0.75 0.93 0.75 1.75 0 0.82 0.45 1.5 1 1.5 0.55 0 1 1.13 1 2.5 0 1.38 0.45 2.5 1 2.5 0.55 0 0.99 0.56 0.98 1.25 0 0.69 1.37 4.18 3.06 7.75 1.69 3.57 4.06 8.52 5.26 11 1.21 2.48 2.54 4.61 2.95 4.75 0.41 0.14 0.75 0.93 0.75 1.75 0 0.82 0.45 1.5 1 1.5 0.55 0 1 0.9 1 2 0 1.1 0.45 2 1 2 0.55 0 1 0.68 1 1.5 0 0.82 0.45 1.27 1 1 0.56-0.28 1.01 0.92 1.03 2.75 0.01 1.95 2.77 8.86 6.89 17.25 3.77 7.7 8.19 16.93 9.82 20.5 1.62 3.57 4.93 10.55 7.35 15.5 2.43 4.95 4.75 9.11 5.16 9.25 0.41 0.14 0.75 0.93 0.75 1.75 0 0.82 2.17 5.89 4.82 11.25 2.65 5.36 5.67 11.55 6.72 13.75 1.05 2.2 2.14 4.83 2.43 5.84 0.49 1.69 0.76 1.63 3.28-0.75 1.51-1.42 2.41-2.6 2-2.61-0.41 0-0.25-0.34 0.35-0.75 0.61-0.4 3.02-4.78 5.36-9.73 2.34-4.95 8.01-16.65 12.59-26l8.34-17c-2.92-24.02-5.38-46.07-7.35-64.5-1.96-18.43-5.16-48.35-7.1-66.5-1.94-18.15-4.42-42-5.52-53-1.09-11-2.61-25.4-3.38-32-0.76-6.6-1.92-17.4-2.57-24-0.64-6.6-1.67-13.57-2.28-15.5-0.6-1.93-1.01-3.84-0.89-4.25 0.11-0.41-0.25-0.53-0.8-0.25-0.55 0.28-1 0.05-1-0.5 0-0.55-1.38-1-3.07-1h-3.06zm759.46 102.5c0 1.79-0.45 3.93-0.98 4.75-0.77 1.19-0.98 0.99-1.02-1-0.04-2.36-0.1-2.39-1.12-0.5-0.59 1.1-0.76 3.13-0.37 4.5 0.59 2.06 0.48 2.28-0.64 1.26-1.11-1.01-2.35 0.93-7.02 11-3.12 6.73-6.02 13.14-6.44 14.24-0.43 1.1-0.83 2.45-0.89 3-0.07 0.55-0.43 2.01-0.81 3.25-0.38 1.24-1.14 2.02-1.69 1.75-0.55-0.27-1 0.4-1 1.5 0 1.1-0.4 2.11-0.88 2.25-0.49 0.14-3.64 5.76-7 12.5-3.37 6.74-6.12 12.7-6.12 13.25 0 0.55-0.91 2.24-2.03 3.75-1.11 1.51-2.28 4.32-2.6 6.25-0.31 1.93-0.64 4.24-0.72 5.15-0.08 0.91-0.59 1.36-1.13 1-0.59-0.39-0.69 0.04-0.25 1.1 0.44 1.05 0.33 1.55-0.27 1.25-0.55-0.27-1.23 0.18-1.5 1-0.28 0.82-0.5 2.4-0.5 3.5q0 1.99-1.24 1.25-1.24-0.74-0.5 0.5c0.41 0.69-0.16 3.5-1.26 6.25-1.1 2.75-2.54 4.89-3.2 4.75-0.65-0.14-1.81 1.55-2.56 3.75-0.75 2.2-1.89 4.31-2.55 4.68-0.65 0.37-1.06 2.17-0.91 4 0.16 1.83-0.06 2.98-0.5 2.57-0.43-0.41-1.29 0.04-1.91 1-0.62 0.96-1.15 2.2-1.17 2.75-0.01 0.55-0.47 1.23-1.01 1.5-0.53 0.27-2.44 3.43-4.23 7-1.79 3.57-4.81 9.65-6.7 13.5-1.9 3.85-3.52 7.75-3.6 8.66-0.09 0.91-0.39 1.49-0.66 1.28-0.28-0.21-1.73 2.19-3.23 5.34-1.49 3.15-2.73 6.28-2.75 6.97-0.01 0.69-0.36 1.36-0.77 1.5-0.41 0.14-1.88 2.69-3.25 5.67-1.38 2.98-2.39 6.24-2.25 7.25 0.14 1.01-0.09 1.83-0.5 1.82-0.41-0.01-1.31 2.02-2 4.5-0.69 2.48-1.7 4.28-2.25 4.01-0.55-0.27-0.78 0.18-0.5 1q0.5 1.5-1.5 1.5c-1.1 0-2-0.45-2-1 0-0.55-0.56-0.7-1.25-0.34-0.73 0.38-2.22-0.56-3.57-2.25-1.81-2.26-1.55-1.34 1.12 4.09 1.89 3.85 4.2 7.68 5.12 8.5 0.92 0.82 1.65 2.06 1.62 2.75-0.02 0.69 0.3 1.25 0.71 1.26 0.41 0.01 4.05-6.86 8.09-15.25 4.03-8.39 7.41-16.23 7.5-17.41 0.09-1.19 0.38-1.99 0.66-1.79 0.27 0.2 1.06-0.75 1.75-2.1 0.69-1.35 1.02-3.14 0.75-3.96-0.28-0.82 0.54-2.51 1.8-3.75 1.27-1.24 3.52-4.84 5-8 1.49-3.16 2.47-6.2 2.2-6.75-0.28-0.55 0.13-1.34 0.91-1.75 0.78-0.41 4.66-7.5 8.63-15.75 3.97-8.25 9.91-20.63 13.2-27.5 3.29-6.87 7.57-15.87 9.51-20 2.03-4.33 3.46-8.88 3.38-10.75-0.1-2.48 0.23-3.13 1.37-2.75 0.82 0.27 1.72-0.18 2-1 0.27-0.82 0.05-1.27-0.5-1-0.55 0.27-0.78-0.18-0.5-1 0.27-0.82 0.84-1.3 1.25-1.06 0.41 0.25 1.99-2 3.5-5 1.51-2.99 2.3-5.21 1.75-4.94-0.55 0.27-1-0.18-1-1 0-0.83 0.56-1.25 1.25-0.95 0.75 0.34 1.83-0.77 2.69-2.75 0.8-1.81 5.58-11.85 10.63-22.3 9.14-18.94 9.17-19.03 9.34-27.25 0.09-4.54-0.07-8.25-0.37-8.25-0.3 0-0.55 1.46-0.56 3.25zm-574 143.56c-7.43 3.68-14.75 7.48-16.25 8.44-1.5 0.96-2.74 1.41-2.75 1 0-0.41-0.34-0.3-0.75 0.25-0.4 0.55-6.13 3.77-12.73 7.15-8.47 4.34-11.93 6.62-11.75 7.75 0.14 0.88-0.2 1.6-0.75 1.6-0.55 0-1.01 0.56-1.01 1.25-0.01 0.69-3.27 4.42-7.25 8.29-3.98 3.88-9.72 9.04-12.74 11.48-3.03 2.43-6.44 5.34-7.59 6.45-1.15 1.12-3.62 3.18-5.5 4.59-1.88 1.41-6.22 5.8-9.66 9.75-3.44 3.95-6.25 7.64-6.25 8.19 0 0.55 1.12 1 2.5 1 1.37 0 3.96-0.63 5.75-1.39 1.79-0.76 6.4-4.05 10.25-7.3 3.85-3.24 13.52-11.29 21.5-17.88 7.97-6.58 21.92-18.12 31-25.63 9.07-7.51 21.22-17.57 27-22.34 5.77-4.77 10.69-8.86 10.92-9.07 0.23-0.21 0.23-0.36 0-0.33-0.23 0.04-6.5 3.08-13.94 6.75zm297.02 5.68c1.33 1.42 1.33 1.61 0 1.68-0.83 0.04-2.85 0.03-4.5-0.03-1.65-0.06-3.56-0.12-4.25-0.12-0.69-0.01-2.2 0.09-3.36 0.23-1.92 0.23-1.8 0.5 1.25 2.97 1.85 1.49 25.63 17.64 52.86 35.88 27.22 18.23 50.85 33.93 52.5 34.87 1.84 1.05 3.04 1.29 3.09 0.62 0.05-0.6 0.39-2.1 0.75-3.34 0.51-1.73 0.2-2.37-1.34-2.75-1.1-0.27-2.29-1.51-2.65-2.75-0.35-1.24-1.74-3.38-3.08-4.75-1.34-1.38-4.81-5.43-7.72-9-3.62-4.46-7.05-7.44-10.95-9.5-3.5-1.85-5.48-3.48-5.14-4.25 0.33-0.77-2.08-2.81-6.21-5.28-3.71-2.22-8.13-4.13-9.81-4.25-1.92-0.14-6.36-2.59-12-6.63-4.92-3.53-11.09-8.03-13.71-10-2.62-1.98-4.74-4.08-4.71-4.69 0.03-0.6-2.89-2.29-6.48-3.75-3.6-1.46-6.88-2.61-7.29-2.56-0.41 0.04-0.98-0.3-1.25-0.75-0.28-0.46-2.08-1.43-4-2.14-3.2-1.19-3.37-1.17-2 0.29zm162.64 23.26c4.12 8.66 7.7 15.98 7.96 16.25 0.25 0.27 0.44-0.29 0.43-1.25-0.02-0.96-2.19-6.14-4.83-11.5-2.64-5.36-5.93-11.89-7.32-14.5-1.38-2.61-2.79-4.75-3.13-4.75-0.33 0 2.76 7.09 6.89 15.75z"/>
		<path id="Path 10" class="s10" d="m546.85 467.75c-1.53 2.51-2.22 5.07-2.09 7.75 0.11 2.2 0.77 5.8 1.47 8 0.7 2.2 6.56 14.46 13.02 27.25 11.14 22.04 11.88 23.22 14.25 22.75 2.06-0.41 2.38-0.19 1.84 1.25-0.51 1.36-0.12 1.25 1.75-0.52 1.33-1.24 4.34-3.94 6.71-6 2.36-2.05 4.26-4.18 4.21-4.73-0.04-0.55 0.84-1.9 1.96-3 1.31-1.28 2.22-3.8 2.54-7 0.28-2.75 0.64-8.15 0.79-12l0.29-7-30.09-26.73-12.6 13.73c1.07-9.3 1.1-13.24 0.74-14.75-0.35-1.51-1.06-2.75-1.57-2.75-0.52 0-1.96 1.69-3.22 3.75zm-73.8-1.09c-0.8 0.28-1.37 1.26-1.27 2.17 0.16 1.44 0.05 1.46-0.78 0.17-0.71-1.1-0.97-0.36-0.98 2.75-0.01 2.5 0.39 4.04 0.98 3.75 0.55-0.28 0.97 0.73 0.93 2.25-0.04 1.51-0.38 3.59-0.75 4.62-0.57 1.56-1.83 0.54-7.68-6.15l-7-8.02c-20.15 16.31-26.04 21.77-26.09 22.67-0.05 0.9-0.45 4.56-0.88 8.13-0.44 3.57-1.41 8.3-2.18 10.5-0.76 2.2-1.09 4.9-0.73 6 0.35 1.1 1.93 3.58 3.49 5.5 1.56 1.92 2.55 3.84 2.2 4.25-0.35 0.41 0.11 0.75 1.02 0.75 0.92 0 3.58 1.78 5.92 3.95 2.42 2.25 5.65 4.18 7.5 4.5l3.25 0.55c23.25-46.5 25.15-51.02 26.05-57.25 0.92-6.44 0.85-7.36-0.65-8.25-0.94-0.55-1.42-1.56-1.09-2.25 0.34-0.69 0.52-1.21 0.4-1.17-0.11 0.04-0.86 0.3-1.66 0.58z"/>
		<path id="Path 11" class="s11" d="m832.85 143.27c-0.04 0.68-0.03 2.02 0.03 2.98 0.07 0.96-0.22 1.56-0.63 1.33-0.41-0.24-2.2 7.07-3.97 16.25-1.78 9.17-3.68 19.82-4.25 23.67-0.56 3.85-1.67 15.32-2.48 25.5-0.8 10.17-2.81 27.5-4.45 38.5-1.64 11-4.58 31.02-6.53 44.5-1.96 13.48-4.2 32.15-5 41.5-0.79 9.35-2.42 21.5-3.61 27-1.19 5.5-2.53 10.67-2.97 11.5-0.5 0.93 0.16 3.79 1.72 7.5 1.38 3.3 3.03 6.33 3.65 6.73 0.66 0.43 0.72 0.8 0.14 0.87-0.55 0.08-1.45 0.05-2-0.05q-1-0.19 0 0.9c0.55 0.59 1.67 1.2 2.5 1.35 0.83 0.14 1.95 0.55 2.5 0.91 0.58 0.39 1.5-1.5 2.21-4.52 0.66-2.86 2.57-16.44 4.25-30.19 1.67-13.75 5.29-43.68 8.04-66.5 2.75-22.82 6.37-52.98 8.04-67 1.68-14.03 4.12-34.28 5.43-45 1.31-10.73 2.7-22.43 3.08-26 0.37-3.58 0.42-7.4 0.11-8.5-0.32-1.1-1.74-2.55-3.15-3.23-2.04-0.97-2.59-0.97-2.66 0zm-537.9 278.57c-5.2 5.47-12.66 14.01-16.58 18.96-4.04 5.11-9.71 10.89-13.12 13.36l-5.99 4.34c2.12 5.04 3.45 8.19 4.31 10.25l1.57 3.75c2.6-4.11 12.07-15.13 22.72-27.15l19.35-21.85c-1.03-7.75-1.67-10.36-2.07-10.81-0.41-0.44-4.99 3.67-10.19 9.15zm517.08-3.34c0.01 0.55 5.06 11.77 11.24 24.93 6.18 13.16 11.68 24.08 12.23 24.26 0.55 0.19 1.9-0.33 3-1.15 1.73-1.3 1.79-1.64 0.5-2.51-0.83-0.55-1.16-1.01-0.75-1.01 0.41-0.01-3.53-8.57-8.75-19.02-5.23-10.45-9.95-19-10.5-19-0.55 0-1.9-1.46-3-3.25-1.09-1.79-2-2.8-2.01-2.25-0.01 0.55-0.46 0.32-0.99-0.5-0.53-0.82-0.97-1.05-0.97-0.5z"/>
		<path id="Path 12" class="s12" d="m789.35 119.41c-1.73 0.75-4.04 2.66-5.15 4.23-1.1 1.57-3.9 7.14-6.21 12.36-2.31 5.22-5.95 14-8.08 19.5-2.13 5.5-3.66 10.11-3.39 10.25 0.26 0.14 1.94-0.37 3.73-1.13 1.79-0.76 4.6-1.88 6.25-2.48 1.65-0.61 5.25-1.02 8-0.92 4.58 0.16 5.7-0.31 13.25-5.52 4.65-3.21 9.34-5.7 10.75-5.7 1.37 0 2.5 0.45 2.5 1 0 0.55 1.35 1.22 3 1.5 1.75 0.29 3.04 1.14 3.09 2.04 0.05 0.84 0.84 2.65 1.75 4.02 1.59 2.39 1.73 2.42 3.44 0.72 0.98-0.98 1.78-2.9 1.77-4.28-0.01-1.37 0.42-3.18 0.95-4 0.53-0.82 1.04-1.05 1.14-0.5 0.09 0.55 0.25 1.45 0.36 2 0.11 0.55 0.49 1.79 0.85 2.75 0.36 0.96 1.1 1.75 1.65 1.75 0.55 0 1.23-2.25 1.5-5 0.29-2.86 0.93-4.79 1.5-4.5 0.57 0.29 1-1 1-3 0-2.22-0.55-3.68-1.5-4-0.83-0.28-1.62-0.39-1.77-0.25-0.15 0.14-1.25-0.65-2.44-1.75-1.2-1.1-8.39-5.9-15.98-10.68-7.6-4.77-14.94-8.92-16.31-9.23-1.38-0.31-3.92 0.06-5.65 0.82zm-511.22 195.55c-1.01 1.4-2.21 3.66-2.67 5.04-0.46 1.37-0.71 3.4-0.54 4.5 0.16 1.1 1.43 3.12 2.81 4.5 1.39 1.37 3.03 2.6 3.65 2.73 0.61 0.13 2.47 0.55 4.12 0.94 2.82 0.66 2.96 0.56 2.26-1.73-0.4-1.34-1.4-6.12-2.21-10.62-1.3-7.2-1.72-8.16-3.53-8.04-1.13 0.08-2.88 1.28-3.89 2.68zm15.29 63.6c-2.15 1.33-4.7 3.44-5.65 4.68-0.95 1.24-1.73 3.16-1.74 4.26-0.01 1.1 1.21 5.09 2.72 8.87 2.2 5.49 3.66 7.55 7.25 10.21 2.48 1.84 5.51 3.36 6.75 3.38 1.66 0.03 2.13-0.42 1.78-1.71-0.26-0.96-1.85-8.27-3.52-16.25-1.68-7.98-3.19-14.81-3.36-15.19-0.17-0.38-2.07 0.41-4.23 1.75zm-36.99 66.79l-2.08 1.15c3.22 7.37 4.52 9.17 4.97 8.75 0.45-0.41 0.57 0.04 0.25 1-0.31 0.96-0.23 1.74 0.18 1.72 0.41-0.02 2.75-1.71 5.21-3.75 2.45-2.05 5.49-4.85 6.75-6.22 1.27-1.38 1.85-2.61 1.3-2.75-0.56-0.14-1.8 0.46-2.76 1.33-1.42 1.28-1.89 1.33-2.47 0.25-0.58-1.08-1.11-1.09-2.75-0.08-1.74 1.07-2.21 0.96-3.28-0.75-0.69-1.11-1.7-1.96-2.25-1.91-0.55 0.06-1.93 0.62-3.07 1.26z"/>
		<path id="Path 13" class="s13" d="m743.84 280.12c-0.83 0.53-2.91 3.76-4.63 7.17-2.42 4.79-4.86 14.08-10.71 40.71-4.17 18.98-9.39 43.05-11.61 53.5-2.21 10.45-4.86 20.8-5.88 23-1.02 2.2-2.57 6.59-3.43 9.75l-1.58 5.75c6.16 1.81 7.68 1.85 8 1.22 0.27-0.54 1.51-4.97 2.75-9.85 1.24-4.88 8.29-36.48 15.68-70.22 7.38-33.75 13.31-61.5 13.17-61.68-0.14-0.18-0.93 0.12-1.76 0.65zm-388.5 87.38c0.01 4.4 0.18 5.98 0.39 3.5 0.21-2.48 0.21-6.07 0-8-0.22-1.93-0.39 0.1-0.39 4.5zm32.16 3.22c0.55 0.54 4.82 3.84 9.5 7.35 4.67 3.5 12.32 9.46 17 13.25 4.67 3.78 10.3 8.55 12.5 10.6 2.2 2.05 9.59 11.57 16.43 21.15 6.84 9.59 14.68 20.58 17.43 24.43 2.74 3.85 6.38 8.43 8.07 10.18l3.07 3.17c57.67-0.96 69.6-0.78 73.25 0.01 4.11 0.89 5.52 0.87 6.5-0.11 0.69-0.69 1.92-2.09 2.75-3.1 1.33-1.63 1.33-1.76 0-1.19-0.83 0.36-6-0.59-11.5-2.12-9.5-2.63-10.99-2.77-30-2.64-11 0.08-21.91 0.62-24.25 1.22-2.42 0.61-5 0.72-6 0.24-0.96-0.46-4.23-2.03-7.25-3.49-5.16-2.49-6.38-3.88-19.68-22.41-7.8-10.87-16.8-22.47-20-25.79-3.2-3.32-8.3-7.85-11.32-10.07-3.03-2.22-6.4-5.13-7.5-6.47-1.1-1.34-4.03-4.12-6.5-6.18-2.63-2.18-5.96-3.94-8-4.23-1.93-0.27-4.06-1.17-4.75-2.01-0.78-0.94-2.09-1.28-3.5-0.91-1.24 0.33-3.38 0.05-4.75-0.62-1.38-0.67-2.05-0.79-1.5-0.26zm289.45 97.46c-6.71 3.49-8.39 3.92-16.95 4.39-8.18 0.45-9.78 0.27-11.5-1.26-1.1-0.99-1.67-1.34-1.26-0.8 0.41 0.54 0.34 1.44-0.14 1.99-0.49 0.55-1.34 2.57-1.89 4.5-0.55 1.93-1.26 4.18-1.6 5-0.51 1.26 0.15 1.39 4.14 0.79 2.61-0.39 7.9-1.19 11.75-1.78 3.85-0.59 11.5-2.2 17-3.58 5.5-1.38 11.69-2.94 13.75-3.47l3.75-0.96c-4.26-4.07-6.42-6.02-7.55-6.97-1.97-1.66-2.34-1.58-9.5 2.15zm-109.07 283.32c-2.38 5.46-2.53 6.59-1.72 12.5 0.5 3.58 1.31 6.95 1.8 7.5 0.56 0.62 1.11-0.22 1.47-2.25 0.31-1.79 0.34-3.7 0.07-4.25-0.28-0.55-0.02-4.04 0.57-7.75 0.59-3.71 0.93-7.87 0.75-9.25-0.26-2.07-0.77-1.46-2.94 3.5zm-115.59-2.24c0.23 0.97 0.77 4.8 1.2 8.5 0.42 3.71 1.15 7.41 1.61 8.24 0.52 0.93 0.83-0.98 0.83-5-0.01-4.68-0.58-7.48-2.03-10-1.11-1.92-1.84-2.71-1.61-1.74z"/>
		<path id="Path 14" class="s14" d="m659 356.43c-1.92 0.7-5.3 2.19-7.5 3.3-2.2 1.11-9.4 5.9-16 10.65-6.6 4.75-17.37 12.79-23.93 17.88-6.56 5.08-14.17 11.26-16.9 13.74-2.73 2.48-9.1 10.35-14.16 17.5-5.05 7.15-13.7 19.75-19.22 28l-10.02 15c1.1 10.85 1.49 13.44 1.57 12.75 0.09-0.69 0.95-1.26 1.91-1.28 1.5-0.02 1.4 0.38-0.69 2.75-1.34 1.53 1.15-0.82 5.52-5.22 4.38-4.4 17.21-18.13 28.51-30.5 11.31-12.38 25.14-27.56 30.73-33.75 8.14-9 10.18-11.85 10.18-14.25 0-2.5 0.33-2.92 2-2.5 1.54 0.39 3.88-1.59 10.25-8.67 4.54-5.04 11.53-12.81 15.54-17.25 4-4.44 7.27-8.42 7.25-8.83-0.02-0.41-0.38-0.72-0.79-0.68-0.41 0.04-2.33 0.65-4.25 1.36zm6.34 12.07c0.01 4.4 0.18 5.98 0.39 3.5 0.21-2.48 0.21-6.07 0-8-0.22-1.93-0.39 0.1-0.39 4.5z"/>
		<path id="Path 15" class="s15" d="m941.74 258.75c-0.2 0.41-0.34 1.72-0.3 2.91 0.05 1.74-0.21 1.93-1.35 1-1.2-0.98-1.24-0.81-0.25 1.09 1 1.95 0.86 2.41-1.09 3.41-2.12 1.1-2.16 1.05-0.78-0.75 0.8-1.05 1.03-1.58 0.5-1.17-0.53 0.41-1.42 0.34-1.97-0.16-0.61-0.56-1.04-0.46-1.1 0.26-0.06 0.64-4.04 9.26-8.85 19.16-4.81 9.9-9.49 19.71-10.4 21.81-1.18 2.72-2.08 3.62-3.15 3.15-1.18-0.51-1.36-0.15-0.83 1.69 0.44 1.54-0.07 3.79-1.5 6.55-1.19 2.3-2.51 3.99-2.92 3.75-0.41-0.25-0.8 0.11-0.87 0.8-0.06 0.69-0.06 1.81 0 2.5 0.07 0.69-0.55 1.03-1.38 0.75-1.14-0.38-1.47 0.27-1.37 2.75 0.08 1.87-1.35 6.42-3.38 10.75-1.94 4.13-6.22 13.13-9.51 20-3.29 6.88-9.23 19.25-13.2 27.5-3.97 8.25-7.85 15.34-8.63 15.75-0.78 0.41-1.18 1.2-0.91 1.75 0.27 0.55-0.71 3.59-2.2 6.75-1.48 3.16-3.73 6.76-5 8-1.26 1.24-2.07 2.93-1.8 3.75 0.27 0.82-0.06 2.61-0.75 3.96-0.69 1.35-1.48 2.3-1.75 2.1-0.27-0.2-0.57 0.6-0.66 1.79-0.09 1.18-3.47 9.02-7.5 17.41-4.04 8.39-7.68 15.26-8.09 15.25-0.41-0.01-0.73-0.57-0.71-1.26 0.03-0.69-0.53-1.75-1.25-2.37-0.93-0.81-0.87-0.19 0.21 2.2 0.93 2.06 1.88 3 2.5 2.46 0.55-0.48 3.02-4.93 5.5-9.9 2.48-4.96 4.95-8.78 5.5-8.48 0.62 0.34 0.52 0.98-0.27 1.7-0.69 0.63-1.26 1.93-1.25 2.89 0.01 0.96-0.54 1.91-1.23 2.11-0.69 0.2-0.91 0.77-0.48 1.25 0.43 0.5 1.28 0.35 1.95-0.36 0.65-0.69 1.57-1.25 2.05-1.25 0.48 0 0.17 0.68-0.7 1.5-0.86 0.82-1.57 1.95-1.57 2.5 0 0.55 0.45 1 1 1 0.55 0 2.12-1.91 3.48-4.25 1.36-2.34 2.45-5.15 2.42-6.25-0.03-1.1-0.25-1.44-0.48-0.75-0.23 0.69-1.21 1.26-2.17 1.28-1.67 0.03-1.67-0.06 0-2 0.96-1.12 2.31-1.79 3-1.49 0.69 0.3 1.81-0.59 2.5-2 0.69-1.4 1.23-2.88 1.21-3.29-0.02-0.41-0.7 0.49-1.5 2-1.37 2.57-1.55 2.64-2.93 1-1.19-1.42-1.46-1.47-1.45-0.25 0 0.82-0.7 2.18-1.56 3-0.86 0.82-1.78 1.16-2.04 0.75-0.27-0.41 0.48-2.89 1.66-5.5 1.17-2.61 6.93-14.65 12.8-26.75 5.87-12.1 11.77-24.33 13.11-27.17 1.71-3.6 2.9-5.01 3.95-4.65 1.13 0.38 1.17 0.3 0.18-0.34-1.02-0.65-0.11-3.4 4.09-12.34 2.97-6.32 7.84-16.55 10.82-22.71 3.06-6.35 5.84-10.93 6.41-10.57 0.62 0.4 0.52 0.78-0.25 0.97-0.69 0.17-1.02 0.76-0.75 1.31 0.27 0.55-0.06 1.69-0.75 2.52-0.69 0.84-0.91 1.74-0.5 2 0.41 0.27 2.33-2.11 4.26-5.27 1.93-3.16 3.5-4.96 3.5-4-0.01 0.96-0.46 1.98-1.01 2.25-0.55 0.27-0.98 1.51-0.95 2.75 0.03 1.39 2.01-1.59 5.15-7.75 2.8-5.5 5.22-11.35 5.37-13 0.16-1.65-0.18-3.68-0.73-4.5-0.78-1.16-0.88-0.99-0.43 0.75 0.49 1.87 0.25 2.17-1.41 1.75-1.68-0.42-1.92-0.11-1.5 2 0.39 1.96 0.12 2.45-1.24 2.25-1.28-0.18-2.02 0.82-2.77 3.75-0.57 2.2-1.81 5.69-2.76 7.75-0.95 2.06-2.18 3.75-2.73 3.75-0.55 0-1.01-0.34-1.03-0.75-0.01-0.41 4.18-9.52 9.33-20.25 5.14-10.73 11.79-24.56 14.77-30.74 2.99-6.19 5.51-11.14 5.6-11 0.1 0.13-0.35 2.16-1 4.5-0.64 2.34-1.51 4.26-1.92 4.25-0.41-0.01-0.75 0.89-0.75 1.99 0 1.1 0.45 2 1 2 0.55 0 1.79-1.69 2.75-3.75 0.96-2.06 2.35-4.2 3.08-4.75 0.73-0.55 1.24-1.68 1.13-2.5-0.11-0.82-0.16-2.4-0.12-3.5 0.06-1.79 0.25-1.85 1.87-0.55 0.98 0.8 1.23 0.91 0.54 0.25-1-0.96-0.9-1.61 0.5-3.24 0.96-1.13 1.75-2.92 1.75-4 0-1.07-0.34-1.95-0.75-1.95-0.41-0.01-0.54-0.46-0.29-1.01 0.26-0.55 0.28-1 0.05-1-0.23 0-0.57 0.34-0.77 0.75zm-850.48 17.75c3.57 7.15 12.12 24.7 19 39 6.88 14.3 15.32 31.85 18.75 39 3.43 7.15 7.92 16.6 9.99 21 2.07 4.4 8.34 17.45 13.94 29 5.6 11.55 13.86 28.53 18.37 37.74 4.5 9.2 8.42 16.52 8.69 16.25 0.28-0.26-0.49-2.39-1.71-4.73-1.22-2.34-4.48-8.87-7.25-14.51-2.77-5.64-5.04-10.93-5.04-11.75 0-0.82-0.34-1.61-0.75-1.75-0.41-0.14-2.73-4.3-5.16-9.25-2.42-4.95-5.73-11.93-7.35-15.5-1.63-3.57-6.05-12.8-9.82-20.5-4.12-8.39-6.88-15.3-6.89-17.25-0.02-1.83-0.47-3.03-1.03-2.75-0.55 0.27-1-0.18-1-1 0-0.82-0.45-1.5-1-1.5-0.55 0-1-0.9-1-2 0-1.1-0.45-2-1-2-0.55 0-1-0.68-1-1.5 0-0.82-0.34-1.61-0.75-1.75-0.41-0.14-1.74-2.27-2.95-4.75-1.2-2.48-3.57-7.43-5.26-11-1.69-3.57-3.06-7.06-3.06-7.75 0.01-0.69-0.43-1.25-0.98-1.25-0.55 0-1-1.12-1-2.5 0-1.37-0.45-2.5-1-2.5-0.55 0-1-0.68-1-1.5 0-0.82-0.34-1.61-0.75-1.75-0.41-0.14-1.94-2.73-3.39-5.75-1.45-3.02-3.41-7.3-4.34-9.5-0.94-2.2-2.57-5.69-3.61-7.75-1.05-2.06-1.91-4.43-1.91-5.25 0-0.82-0.37-1.61-0.83-1.75-0.45-0.14-3.26-5.15-6.25-11.13-2.98-5.98-6.03-11.38-6.78-12-0.76-0.62 1.55 4.73 5.12 11.88zm548.68 110.77c0 0.68 1.25 1.87 2.78 2.65 1.53 0.77 3.46 1.56 4.28 1.74 0.83 0.18 1.61 0.56 1.75 0.83 0.14 0.28 0.03 0.96-0.25 1.51-0.3 0.61-3.26 0.02-7.5-1.5-3.85-1.37-7-2.27-7-2 0 0.27 1.01 0.92 2.25 1.44 1.74 0.72 1.85 0.95 0.5 1-0.96 0.03-2.87-0.39-4.25-0.94q-2.5-1-2.5 0c0 0.55 2.81 3.49 6.25 6.53 3.44 3.04 6.7 5.35 7.25 5.13 0.55-0.21 1.79 0 2.75 0.48 1.11 0.54 1.57 0.49 1.25-0.14-0.27-0.55 0.06-1.16 0.75-1.36 0.69-0.21 1.93-0.04 2.75 0.37 0.83 0.4 2.63 0.61 4 0.45 1.38-0.16 2.95-0.31 3.5-0.33 0.55-0.02 0.33-0.76-0.5-1.64-1.37-1.46-1.22-1.48 1.7-0.29 1.76 0.71 3.47 1.07 3.79 0.8 0.32-0.27 0.31-2.98-0.04-6-0.61-5.41-0.68-5.5-4.04-5.75-1.87-0.14-4.31-0.7-5.41-1.25-1.1-0.55-3.57-1-5.5-1-1.92 0-4.64-0.44-6.04-0.98-1.86-0.71-2.53-0.65-2.52 0.25zm-74.02 78.23c-1.33 1.37-2.19 2.65-1.92 2.85 0.28 0.2 7.14 6.28 15.25 13.51 13.29 11.84 15.01 13.07 17.4 12.39 1.46-0.41 2.83-1.2 3.05-1.75 0.21-0.55-1.32-2.88-3.41-5.17-2.08-2.3-8.63-8.71-14.54-14.25-5.91-5.55-11.35-10.08-12.08-10.08-0.73 0-2.42 1.12-3.75 2.5z"/>
		<path id="Path 16" class="s16" d="m799.67 391.5c-0.37 0.27 2.14 6.56 5.58 13.97 3.62 7.8 6.66 13.16 7.23 12.75 0.61-0.45 0.68 0.02 0.19 1.28-0.64 1.62-0.54 1.77 0.52 0.77 1.05-0.99 1.65-0.65 3.06 1.75 0.96 1.64 2.31 2.97 3 2.96 0.77 0 0.87-0.29 0.25-0.75-0.55-0.4-1.14-1.41-1.31-2.23-0.18-0.82-2.35-5.77-4.84-11-4.09-8.56-4.49-10.04-4.06-15 0.26-3.02 0.3-4.49 0.09-3.25-0.32 1.89-0.63 2.05-1.92 1-0.85-0.69-1.53-0.91-1.5-0.5 0.02 0.41-1.08 0.07-2.46-0.75-1.37-0.82-2.65-1.5-2.83-1.5-0.19 0-0.64 0.23-1 0.5zm-601.48 39.49c-7.25 14.86-13.19 27.91-13.19 29.01 0 1.5 0.42 1.81 1.66 1.25 0.91-0.41 2.74-3.23 4.08-6.25 1.33-3.02 6.66-15.63 11.86-28 5.19-12.38 9.29-22.61 9.11-22.76-0.18-0.14-6.26 11.9-13.52 26.75z"/>
		<path id="Path 17" class="s3" d="m650.73 394.62c-0.7 0.76-0.93 1.49-0.51 1.63 0.43 0.14 1.34 0.25 2.03 0.25 0.69 0 1.92 0.61 2.75 1.36 0.83 0.75 2.72 1.2 4.21 1 1.5-0.2 2.89 0.09 3.1 0.64 0.21 0.55 0.33 0.32 0.26-0.5-0.08-1.08-1.1-1.43-3.59-1.25-1.92 0.14-2.96-0.09-2.32-0.5 0.89-0.57 0.89-1.11 0-2.25-0.64-0.82-1.94-1.56-2.9-1.63-0.96-0.08-2.32 0.49-3.03 1.25z"/>
		<path id="Path 18" class="s7" d="m746.46 489.59c0.18 0.5 4.98 1.54 10.68 2.32 5.7 0.77 11.15 1.11 12.11 0.75 0.96-0.36 1.75-1 1.75-1.41 0-0.41-1.46-0.81-3.25-0.87-1.79-0.07-7.38-0.48-12.43-0.91-5.44-0.47-9.05-0.42-8.86 0.12z"/>
		<path id="Path 19" class="s15" d="m928.93 286.75c-0.82 0.96-1.58 2.09-1.71 2.5-0.12 0.41-0.21 1.31-0.2 2 0.01 0.69-0.78 2.15-1.75 3.25-0.97 1.1-1.88 2.79-2.02 3.75q-0.25 1.75 1.75 1.75c1.1 0 2.17 0.56 2.37 1.25 0.2 0.69 0.31-1.04 0.25-3.85-0.08-3.26 0.42-5.71 1.38-6.79 0.83-0.94 1.05-1.69 0.5-1.68-0.55 0-0.21-0.43 0.75-0.96 0.96-0.53 1.75-1.42 1.75-1.97 0-0.55-0.36-1-0.79-1-0.44 0-1.46 0.79-2.28 1.75zm-7.59 15.02c-0.63 0.4-1.42 2.42-1.75 4.48-0.32 2.06-0.48 3.76-0.34 3.78 0.14 0.02 1.41-0.54 2.83-1.25 1.6-0.8 2.37-1.84 2.05-2.78q-0.52-1.49 0.67-0.75 1.19 0.73 0.7-0.75c-0.27-0.82-1.06-1.53-1.75-1.57-0.69-0.04-0.35-0.46 0.75-0.93l2-0.86c-3.1-0.08-4.52 0.22-5.16 0.63zm-41.01 85.48c-0.43 0.69-0.9 2.04-1.05 3-0.15 0.96-0.9 2.76-1.66 4-0.76 1.24-1.66 3.49-2 5-0.34 1.51-0.69 3.09-0.77 3.5-0.08 0.41-0.8 1.2-1.6 1.75-0.8 0.55-1.52 2.42-1.6 4.15-0.08 1.74-0.37 3-0.65 2.82-0.27-0.19-1.06-0.03-1.75 0.35-0.68 0.37-1.47 1.92-1.75 3.43-0.27 1.51 0 3.09 0.61 3.5 0.61 0.41 1.51 0.07 1.99-0.75 0.77-1.33 0.87-1.33 0.92 0 0.03 1.06 0.37 0.92 1.18-0.5 0.85-1.51 0.85-2.06-0.03-2.25-0.84-0.18-0.75-1.1 0.33-3.25 0.83-1.65 1.73-3 2-3 0.28 0 0.28 0.68 0 1.5-0.27 0.82-0.27 1.5 0 1.5 0.28 0 1.86-3.04 3.53-6.75 2.08-4.65 2.7-7.06 1.98-7.75q-1.05-1.03-1 1c0.03 1.1-0.2 1.77-0.51 1.5-0.3-0.27-0.31-1.74-0.02-3.25 0.28-1.51 0.97-2.75 1.52-2.75 0.55 0 0.78 0.68 0.5 1.5-0.27 0.82-0.05 1.5 0.5 1.5 0.55 0 1.23-0.68 1.5-1.5 0.28-0.82 0.28-1.95 0-2.5-0.27-0.55-0.05-1 0.5-1 0.55 0 1-0.45 1-1 0-0.55-0.56-0.89-1.25-0.75-0.74 0.15-1.18-0.67-1.08-2 0.09-1.24 0-2.25-0.2-2.25-0.21 0-0.72 0.56-1.14 1.25zm-737.05 5.89c1.22 2.28 2.56 4.3 2.97 4.5 0.41 0.2 0.3-0.54-0.25-1.64-0.55-1.1-0.95-2.34-0.88-2.75 0.06-0.41 0.06-1.31 0-2-0.07-0.69-0.57-1.02-1.12-0.75-0.55 0.27-1 0.05-1-0.5 0-0.55-0.44-1-0.97-1-0.54 0 0.02 1.86 1.25 4.14z"/>
	</g>
</svg>
